<?xml version="1.0" encoding="UTF-8"?>
<svg version="1.1" xmlns="http://www.w3.org/2000/svg" width="361" height="126">
<path d="M0 0 C2.62608337 1.90455627 2.62608337 1.90455627 5.10913086 4.42797852 C5.56857086 4.88654236 6.02801086 5.3451062 6.50137329 5.81756592 C8.00387771 7.32422277 9.48404843 8.85093385 10.96484375 10.37890625 C12.00727198 11.43253497 13.05104027 12.48483942 14.09608459 13.53587341 C16.83359035 16.29621016 19.55259349 19.07408768 22.26806641 21.8560791 C25.04596342 24.69552209 27.84107593 27.51790607 30.63476562 30.34179688 C36.10678464 35.87802728 41.55935922 41.4329116 47 47 C50.56416242 45.49049359 52.78867489 43.42181765 55.47387695 40.65795898 C56.35191483 39.7604039 57.2299527 38.86284882 58.13459778 37.93809509 C58.59929789 37.45866896 59.06399799 36.97924282 59.54277992 36.48528862 C61.00484367 34.9790307 62.47484506 33.48096858 63.94755554 31.98512268 C68.13279282 27.73283768 72.30969084 23.47264113 76.46557617 19.19165039 C79.01188085 16.56986387 81.57275142 13.96307955 84.14342308 11.36519051 C85.11740195 10.37515031 86.08580715 9.37959349 87.04833412 8.37841606 C88.39742515 6.97611286 89.76733007 5.59392517 91.13793945 4.21264648 C92.29565605 3.02589577 92.29565605 3.02589577 93.47676086 1.81517029 C96.68137574 -0.49016876 99.08934562 -0.82081522 103 -1 C105.94755732 0.34562399 107.54277272 1.08554544 109 4 C109.54157299 7.38483121 109.78038579 9.8768848 107.75926208 12.78564453 C106.92407799 13.69999268 106.92407799 13.69999268 106.07202148 14.6328125 C105.43376434 15.33196777 104.7955072 16.03112305 104.13790894 16.75146484 C100.27245461 20.81693732 96.32616247 24.79535146 92.34765625 28.75 C90.99745644 30.09807739 90.99745644 30.09807739 89.61997986 31.47338867 C87.25288737 33.83586575 84.88365361 36.19615112 82.51330566 38.55535889 C80.08449258 40.97385181 77.65858897 43.39525946 75.23242188 45.81640625 C70.49092631 50.54692954 65.74658102 55.27457973 61 60 C64.71940646 64.43861913 68.54364677 68.6857222 72.66015625 72.7578125 C73.17251328 73.26875458 73.6848703 73.77969666 74.2127533 74.30612183 C75.82696706 75.91481489 77.44463833 77.51997658 79.0625 79.125 C80.14932329 80.20679546 81.23591355 81.28882509 82.32226562 82.37109375 C84.32156239 84.36229064 86.32221125 86.35210664 88.32446289 88.34033203 C90.88795223 90.88861681 93.44410403 93.44410403 96 96 C97.02510692 97.01526759 98.05099763 98.02974526 99.078125 99.04296875 C100.13543923 100.09112308 101.19273067 101.13930038 102.25 102.1875 C102.79140625 102.72052734 103.3328125 103.25355469 103.890625 103.80273438 C108.85715769 108.73822623 108.85715769 108.73822623 109.375 113.3125 C109 117 109 117 106.875 119.9375 C104 122 104 122 101.1875 122.75 C92.95270988 120.81240233 86.03754483 111.17011629 80.25 105.34765625 C79.35128174 104.44752304 78.45256348 103.54738983 77.52661133 102.61997986 C75.16413425 100.25288737 72.80384888 97.88365361 70.44464111 95.51330566 C68.02614819 93.08449258 65.60474054 90.65858897 63.18359375 88.23242188 C58.45307046 83.49092631 53.72542027 78.74658102 49 74 C45.43310243 75.51503198 43.16244373 77.60055978 40.44677734 80.34204102 C39.55260101 81.2395961 38.65842468 82.13715118 37.7371521 83.06190491 C36.77004874 84.04254064 35.80297799 85.02320852 34.8359375 86.00390625 C33.83804564 87.00807139 32.83963497 88.01172121 31.84072876 89.01487732 C29.21674832 91.65213983 26.59839906 94.29491671 23.98162842 96.93933105 C19.78741723 101.1767224 15.586417 105.40735711 11.3821907 109.63480949 C9.91404164 111.11319333 8.44934522 112.59493579 6.98495483 114.07704163 C6.09708282 114.97144455 5.20921082 115.86584747 4.29443359 116.78735352 C3.51151947 117.57852066 2.72860535 118.36968781 1.92196655 119.18482971 C-0.46040281 121.43482001 -1.54822061 121.93976275 -4.8125 122.375 C-8 122 -8 122 -10.875 119.9375 C-13 117 -13 117 -13.75 113.6875 C-12.00489272 105.10738921 -2.36804911 98.23429072 3.65234375 92.25 C4.55247696 91.35128174 5.45261017 90.45256348 6.38002014 89.52661133 C8.74711263 87.16413425 11.11634639 84.80384888 13.48669434 82.44464111 C15.91550742 80.02614819 18.34141103 77.60474054 20.76757812 75.18359375 C25.50907369 70.45307046 30.25341898 65.72542027 35 61 C30.13899546 55.13629916 24.88993778 49.77540514 19.48046875 44.41796875 C18.58129227 43.52257889 17.68211578 42.62718903 16.75569153 41.70466614 C13.90204124 38.86317138 11.04526527 36.02485438 8.1875 33.1875 C4.40716482 29.43398466 0.63040151 25.67691945 -3.14453125 21.91796875 C-4.01737259 21.05342575 -4.89021393 20.18888275 -5.789505 19.29814148 C-6.59091415 18.50003555 -7.3923233 17.70192963 -8.21801758 16.87963867 C-8.92606033 16.17683273 -9.63410309 15.47402679 -10.36360168 14.74992371 C-12.74277663 12.20569313 -12.98585625 11.19094064 -13.25 7.625 C-12.99015512 3.85724926 -12.67186361 2.5729057 -10 0 C-6.16992849 -1.2766905 -3.92320061 -0.90658134 0 0 Z " fill="#010101" transform="translate(249,2)"/>
<path d="M0 0 C4.5644685 1.37795276 4.5644685 1.37795276 6.3125 4 C7.56174355 8.1478033 7.45714936 12.24956008 7.4543457 16.54467773 C7.45955734 17.83560837 7.45955734 17.83560837 7.46487427 19.15261841 C7.47221883 21.01924941 7.47757113 22.88588906 7.48116493 24.75253105 C7.48833888 27.70733072 7.50401141 30.66196516 7.52250671 33.61671448 C7.57494034 42.01699597 7.62297272 50.41718522 7.63842773 58.81762695 C7.64850408 63.95766897 7.67781618 69.09729252 7.71974754 74.23716927 C7.73206363 76.19513854 7.73717769 78.15316689 7.73494911 80.11117363 C7.7325984 82.84988031 7.75474339 85.58738361 7.7824707 88.32592773 C7.77586929 89.1338829 7.76926788 89.94183807 7.76246643 90.77427673 C7.82532442 94.55530156 8.16118732 96.76371815 10.22062683 99.97962952 C13.77396923 103.4115145 16.1339497 103.13644965 20.99365234 103.17358398 C22.02320793 103.1836145 22.02320793 103.1836145 23.07356262 103.19384766 C24.56589348 103.20790789 26.05824598 103.21979885 27.55060959 103.22979546 C29.91269518 103.24619272 32.2746208 103.26943032 34.6366272 103.29469299 C41.35304809 103.36550138 48.06953462 103.42557548 54.78613281 103.47680664 C58.89284765 103.50861102 62.99937921 103.54989128 67.10594559 103.59700203 C68.67119676 103.61301465 70.23649016 103.62533965 71.80179977 103.63390923 C73.99224179 103.64607308 76.18225363 103.6702272 78.37255859 103.69702148 C79.61895111 103.70732895 80.86534363 103.71763641 82.14950562 103.72825623 C85.14975928 103.98601838 86.82637848 104.36117407 89.3125 106 C91.40929403 108.69587803 91.30760821 110.092944 91.125 113.5625 C90.33737718 116.89475039 90.01568387 118.05370761 87.3125 120 C84.41394976 121.44927512 81.8730934 121.15138559 78.63476562 121.17700195 C77.94827942 121.18357315 77.26179321 121.19014435 76.55450439 121.19691467 C74.27591847 121.21666771 71.99739879 121.2283198 69.71875 121.23828125 C68.54870674 121.24439454 68.54870674 121.24439454 67.35502625 121.25063133 C63.21975977 121.27150891 59.08452656 121.28579858 54.94921875 121.29516602 C50.69693783 121.30618386 46.44518696 121.34052446 42.19309235 121.38033772 C38.90888568 121.40662208 35.62480245 121.41486866 32.34049988 121.41844749 C30.77455601 121.42328959 29.20861677 121.43483506 27.64277649 121.45348549 C16.46885289 121.57821306 6.45708009 120.80577616 -2.15234375 112.84765625 C-8.00442322 105.80431378 -9.83512752 98.12047487 -9.89624023 89.20166016 C-9.90602402 88.30217148 -9.9158078 87.4026828 -9.92588806 86.47593689 C-9.95582257 83.49699382 -9.97721922 80.51809545 -9.99609375 77.5390625 C-10.00266558 76.52202618 -10.0092374 75.50498985 -10.01600838 74.45713425 C-10.04858961 69.07625468 -10.07304642 63.69539486 -10.0925293 58.31445312 C-10.11036217 53.8581066 -10.14521616 49.40239048 -10.19506836 44.94628906 C-10.25517247 39.56760315 -10.28599107 34.18950304 -10.29570198 28.81049728 C-10.30427233 26.76032062 -10.32312914 24.71016028 -10.3524456 22.66017532 C-10.39126523 19.79179498 -10.3924076 16.92570857 -10.38452148 14.05712891 C-10.40452209 13.21019974 -10.42452271 12.36327057 -10.44512939 11.49067688 C-10.37631898 5.91767658 -10.37631898 5.91767658 -8.434618 3.33085251 C-5.50253331 0.70563628 -3.97153074 0 0 0 Z " fill="#000000" transform="translate(10.6875,1)"/>
<path d="M0 0 C4.9374316 3.42715841 9.37986413 7.53189035 12 13 C11.68965517 19.31034483 11.68965517 19.31034483 10 21 C7.21484375 21.36328125 7.21484375 21.36328125 4 21 C1.69140625 18.91796875 1.69140625 18.91796875 -0.4375 16.1875 C-4.74023087 11.1089846 -7.41256605 8.55704555 -14.1875 7.734375 C-19.43008102 7.48641509 -23.40098148 8.31000804 -28 11 C-31.92523804 14.7443515 -35.63421574 18.90989148 -36.29052734 24.4543457 C-36.33980442 27.40752619 -36.37131028 30.35887745 -36.375 33.3125 C-36.39949219 34.33279297 -36.42398438 35.35308594 -36.44921875 36.40429688 C-36.47906979 44.1008896 -35.29452914 48.61134145 -29.8125 54.25 C-23.87054303 57.94721767 -18.1902443 59.71854539 -11.203125 58.5703125 C-5.80933774 57.17404842 -2.0919703 55.31036436 1.5 51 C3.2981424 47.9627322 3.2981424 47.9627322 3 44 C1.72382813 43.95101562 0.44765625 43.90203125 -0.8671875 43.8515625 C-2.53648072 43.77653809 -4.20575046 43.70099012 -5.875 43.625 C-6.71675781 43.5940625 -7.55851562 43.563125 -8.42578125 43.53125 C-9.23144531 43.49257812 -10.03710938 43.45390625 -10.8671875 43.4140625 C-11.61081543 43.3826416 -12.35444336 43.3512207 -13.12060547 43.31884766 C-15 43 -15 43 -17 41 C-17.375 38.0625 -17.375 38.0625 -17 35 C-14.5218998 32.30064086 -13.00237953 32.00025766 -9.3203125 31.6015625 C-7.92187567 31.59363186 -6.52326868 31.60190932 -5.125 31.625 C-4.08279297 31.60759766 -4.08279297 31.60759766 -3.01953125 31.58984375 C1.72752568 31.61666328 4.97715144 32.50285401 9 35 C13.37804457 39.85134669 14.42842957 42.91164461 14.3359375 49.33984375 C13.45243102 56.33598223 8.3448788 61.23132813 3.08984375 65.52734375 C-4.0806722 70.580212 -12.81010989 71.45999183 -21.41796875 70.8203125 C-30.68051227 69.21371203 -37.80353255 63.99109879 -43.52734375 56.734375 C-47.54177833 49.28051768 -48.48551197 41.79343253 -48.375 33.4375 C-48.38660156 32.55642578 -48.39820313 31.67535156 -48.41015625 30.76757812 C-48.36620816 20.84263396 -45.37531614 12.64174463 -39 5 C-27.95688266 -5.49439101 -13.52643217 -7.08527399 0 0 Z " fill="#010101" transform="translate(217,52)"/>
<path d="M0 0 C7.04116291 5.56318296 10.36371854 13.31044998 12.25 21.875 C12.63335394 25.38918717 12.67195606 28.8428607 12.625 32.375 C12.63660156 33.24769531 12.64820313 34.12039062 12.66015625 35.01953125 C12.61231168 45.78455989 9.73257415 54.06843811 2.25 61.875 C-5.39275392 68.67224318 -13.62867688 69.50753752 -23.5390625 69.25 C-31.71577285 68.74100069 -37.81111527 64.68221511 -43.28125 58.7734375 C-49.79464396 50.35452935 -50.00414222 42.05587245 -50.125 31.75 C-50.16238281 30.5640625 -50.19976562 29.378125 -50.23828125 28.15625 C-50.33735612 18.18271279 -47.8222847 10.15529307 -40.75 2.875 C-29.51335653 -7.18360827 -12.66309388 -8.04315194 0 0 Z M-36.5234375 14.8984375 C-39.86849515 20.28888071 -40.08815169 25.60385615 -40.0625 31.75 C-40.07861328 32.51441406 -40.09472656 33.27882813 -40.11132812 34.06640625 C-40.11697329 40.71640517 -38.61346244 45.94670188 -35 51.625 C-30.66976478 55.95523522 -26.09078734 58.47312633 -19.9296875 58.9765625 C-13.57767027 58.68059037 -7.09989023 56.60870408 -2.75 51.875 C1.49712541 45.60752034 1.8653679 39.7873878 1.75 32.375 C1.76546875 31.38113281 1.7809375 30.38726562 1.796875 29.36328125 C1.7576387 21.93781146 0.54573128 16.20868596 -4.78515625 10.81640625 C-5.45417969 10.36136719 -6.12320313 9.90632813 -6.8125 9.4375 C-7.48410156 8.96441406 -8.15570313 8.49132812 -8.84765625 8.00390625 C-18.93852253 2.01569197 -29.62489675 6.76663807 -36.5234375 14.8984375 Z " fill="#010101" transform="translate(152.75,53.125)"/>
<path d="M0 0 C0 0.33 0 0.66 0 1 C-5.94 1 -11.88 1 -18 1 C-17.67 0.34 -17.34 -0.32 -17 -1 C-14.19921875 -1.484375 -14.19921875 -1.484375 -10.6875 -1.75 C-9.53636719 -1.84796875 -8.38523437 -1.9459375 -7.19921875 -2.046875 C-4.08032269 -2.00117689 -2.58326322 -1.6583912 0 0 Z " fill="#1C1C1C" transform="translate(44,106)"/>
<path d="" fill="#FFFFFF" transform="translate(0,0)"/>
<path d="" fill="#FFFFFF" transform="translate(0,0)"/>
<path d="" fill="#FFFFFF" transform="translate(0,0)"/>
<path d="" fill="#FFFFFF" transform="translate(0,0)"/>
<path d="" fill="#FFFFFF" transform="translate(0,0)"/>
<path d="" fill="#FFFFFF" transform="translate(0,0)"/>
<path d="" fill="#FFFFFF" transform="translate(0,0)"/>
<path d="" fill="#FFFFFF" transform="translate(0,0)"/>
<path d="" fill="#FFFFFF" transform="translate(0,0)"/>
<path d="" fill="#FFFFFF" transform="translate(0,0)"/>
<path d="" fill="#FFFFFF" transform="translate(0,0)"/>
<path d="" fill="#FFFFFF" transform="translate(0,0)"/>
<path d="" fill="#FFFFFF" transform="translate(0,0)"/>
<path d="" fill="#FFFFFF" transform="translate(0,0)"/>
<path d="" fill="#FFFFFF" transform="translate(0,0)"/>
<path d="" fill="#FFFFFF" transform="translate(0,0)"/>
<path d="" fill="#FFFFFF" transform="translate(0,0)"/>
<path d="" fill="#FFFFFF" transform="translate(0,0)"/>
<path d="" fill="#FFFFFF" transform="translate(0,0)"/>
<path d="" fill="#FFFFFF" transform="translate(0,0)"/>
<path d="" fill="#FFFFFF" transform="translate(0,0)"/>
<path d="" fill="#FFFFFF" transform="translate(0,0)"/>
<path d="" fill="#FFFFFF" transform="translate(0,0)"/>
<path d="" fill="#FFFFFF" transform="translate(0,0)"/>
<path d="" fill="#FFFFFF" transform="translate(0,0)"/>
<path d="" fill="#FFFFFF" transform="translate(0,0)"/>
<path d="" fill="#FFFFFF" transform="translate(0,0)"/>
<path d="" fill="#FFFFFF" transform="translate(0,0)"/>
<path d="" fill="#FFFFFF" transform="translate(0,0)"/>
<path d="" fill="#FFFFFF" transform="translate(0,0)"/>
<path d="" fill="#FFFFFF" transform="translate(0,0)"/>
<path d="" fill="#FFFFFF" transform="translate(0,0)"/>
<path d="" fill="#FFFFFF" transform="translate(0,0)"/>
<path d="" fill="#FFFFFF" transform="translate(0,0)"/>
<path d="" fill="#FFFFFF" transform="translate(0,0)"/>
<path d="" fill="#FFFFFF" transform="translate(0,0)"/>
<path d="" fill="#FFFFFF" transform="translate(0,0)"/>
<path d="" fill="#FFFFFF" transform="translate(0,0)"/>
<path d="" fill="#FFFFFF" transform="translate(0,0)"/>
<path d="" fill="#FFFFFF" transform="translate(0,0)"/>
<path d="" fill="#FFFFFF" transform="translate(0,0)"/>
<path d="" fill="#FFFFFF" transform="translate(0,0)"/>
<path d="" fill="#FFFFFF" transform="translate(0,0)"/>
<path d="" fill="#FFFFFF" transform="translate(0,0)"/>
<path d="" fill="#FFFFFF" transform="translate(0,0)"/>
<path d="" fill="#FFFFFF" transform="translate(0,0)"/>
<path d="" fill="#FFFFFF" transform="translate(0,0)"/>
<path d="" fill="#FFFFFF" transform="translate(0,0)"/>
<path d="" fill="#FFFFFF" transform="translate(0,0)"/>
<path d="" fill="#FFFFFF" transform="translate(0,0)"/>
<path d="" fill="#FFFFFF" transform="translate(0,0)"/>
<path d="" fill="#FFFFFF" transform="translate(0,0)"/>
<path d="" fill="#FFFFFF" transform="translate(0,0)"/>
<path d="" fill="#FFFFFF" transform="translate(0,0)"/>
<path d="" fill="#FFFFFF" transform="translate(0,0)"/>
<path d="" fill="#FFFFFF" transform="translate(0,0)"/>
<path d="" fill="#FFFFFF" transform="translate(0,0)"/>
<path d="" fill="#FFFFFF" transform="translate(0,0)"/>
<path d="" fill="#FFFFFF" transform="translate(0,0)"/>
<path d="" fill="#FFFFFF" transform="translate(0,0)"/>
<path d="" fill="#FFFFFF" transform="translate(0,0)"/>
<path d="" fill="#FFFFFF" transform="translate(0,0)"/>
<path d="" fill="#FFFFFF" transform="translate(0,0)"/>
<path d="" fill="#FFFFFF" transform="translate(0,0)"/>
<path d="" fill="#FFFFFF" transform="translate(0,0)"/>
<path d="" fill="#FFFFFF" transform="translate(0,0)"/>
<path d="" fill="#FFFFFF" transform="translate(0,0)"/>
</svg>
