<?xml version="1.0" encoding="UTF-8"?>
<svg version="1.1" xmlns="http://www.w3.org/2000/svg" width="362" height="219">
<path d="M0 0 C1.14649017 -0.00524185 2.29298035 -0.0104837 3.47421265 -0.0158844 C5.88953853 -0.02227621 8.30489565 -0.02100469 10.72021484 -0.01245117 C14.36744328 -0.00397825 18.01308347 -0.03268591 21.66015625 -0.06445312 C40.6740872 -0.12211441 56.62587115 0.7108922 71.0234375 14.30859375 C80.02789043 23.81329407 83.88002708 34.86432516 84.2734375 47.99609375 C83.87070371 60.937273 79.32594526 72.78984977 70.3984375 82.24609375 C57.35770339 94.34925874 41.65959847 95.59915314 24.6484375 95.53125 C23.29223686 95.52938155 21.93603554 95.52795967 20.57983398 95.52696228 C17.03548267 95.52317071 13.49117329 95.5133697 9.94683838 95.5022583 C6.32003344 95.49197137 2.69322162 95.48744916 -0.93359375 95.48242188 C-8.031267 95.47174393 -15.12891199 95.45470859 -22.2265625 95.43359375 C-22.21545944 96.0488945 -22.20435638 96.66419525 -22.19291687 97.29814148 C-22.08224753 103.70569331 -22.0068637 110.11297343 -21.9519043 116.52124023 C-21.92676935 118.91230294 -21.89265617 121.30328889 -21.84936523 123.6940918 C-21.78867189 127.13219139 -21.76034178 130.56927471 -21.73828125 134.0078125 C-21.71247482 135.07569504 -21.6866684 136.14357758 -21.66007996 137.24382019 C-21.65728199 144.6574989 -21.65728199 144.6574989 -24.53833008 148.58520508 C-27.91635172 150.90788257 -30.13377259 151.43359375 -34.2265625 151.43359375 C-37.80043852 149.84520441 -39.03745822 148.71725017 -41.2265625 145.43359375 C-41.48941803 143.23950291 -41.48941803 143.23950291 -41.50744629 140.63587952 C-41.51886658 139.64781311 -41.53028687 138.6597467 -41.54205322 137.64173889 C-41.54428894 136.55863937 -41.54652466 135.47553986 -41.54882812 134.35961914 C-41.56372284 132.64686295 -41.56372284 132.64686295 -41.57891846 130.89950562 C-41.60819932 127.11006273 -41.62177558 123.32078759 -41.6328125 119.53125 C-41.6443171 116.89627579 -41.65583255 114.26130163 -41.6673584 111.62632751 C-41.68650755 106.79997989 -41.69829542 101.97366837 -41.7043519 97.14728743 C-41.7132862 90.06774621 -41.74824964 82.98898255 -41.80635309 75.90967757 C-41.85504336 69.76139504 -41.87025286 63.61342967 -41.873703 57.46496391 C-41.87973639 54.85959086 -41.8957269 52.25422029 -41.92207336 49.64897346 C-41.95642324 45.9894354 -41.95237919 42.33175574 -41.93945312 38.67211914 C-41.95788269 37.6072377 -41.97631226 36.54235626 -41.99530029 35.44520569 C-41.89285902 26.12434656 -38.43694204 18.41845943 -32.8515625 10.99609375 C-23.52716395 1.89370469 -12.65366475 -0.03441479 0 0 Z M-18.2265625 24.43359375 C-22.53242592 30.05067743 -22.77440302 35.77293898 -22.6171875 42.62109375 C-22.61152771 43.5642041 -22.60586792 44.50731445 -22.60003662 45.47900391 C-22.57780835 48.46440353 -22.5276381 51.44856249 -22.4765625 54.43359375 C-22.45647996 56.46873256 -22.43823228 58.50389034 -22.421875 60.5390625 C-22.37798807 65.50437766 -22.30905564 70.46877602 -22.2265625 75.43359375 C-14.03746808 75.50337323 -5.84849971 75.55654586 2.34081936 75.58903027 C6.14423122 75.60462804 9.94743835 75.62575723 13.75073242 75.65991211 C17.42713979 75.6927176 21.10335133 75.71049095 24.77989388 75.71822548 C26.17640321 75.72373126 27.57290289 75.73448189 28.96932793 75.75078392 C39.89082594 75.87311072 48.84139323 75.31822034 56.9765625 67.4921875 C63.21123272 60.34942401 64.60994105 53.45494956 64.25 44.05859375 C63.15247008 35.71016942 59.34510837 30.28227585 53.03125 24.90625 C45.82910311 20.20865592 39.75529584 19.97833311 31.3046875 20 C29.51327332 19.99213722 29.51327332 19.99213722 27.68566895 19.9841156 C25.16756974 19.97770909 22.64944055 19.97901456 20.13134766 19.98754883 C16.28624079 19.99606539 12.44261682 19.96726448 8.59765625 19.93554688 C6.14583378 19.93393484 3.69400868 19.93451245 1.2421875 19.9375 C0.09721802 19.92626602 -1.04775146 19.91503204 -2.22741699 19.90345764 C-8.73682244 19.96010268 -13.13149956 20.19901358 -18.2265625 24.43359375 Z " fill="#000000" transform="translate(43.2265625,66.56640625)"/>
<path d="M0 0 C6.27703574 1.12958579 9.47319843 5.40921418 13.77539062 9.90283203 C14.71106424 10.8541279 15.64839066 11.80380065 16.58728027 12.75192261 C19.0529969 15.24996653 21.49743125 17.76782497 23.93743896 20.29095459 C26.88820703 23.33525625 29.86170509 26.3573187 32.83356476 29.38101006 C35.14991329 31.73814766 37.46085334 34.09975671 39.76208496 36.47171021 C44.30854003 41.14118867 48.89962678 45.56385884 53.93164062 49.70751953 C57.54069308 48.1815493 59.83133768 46.044523 62.57666016 43.27368164 C63.49085724 42.3561058 64.40505432 41.43852997 65.34695435 40.4931488 C66.33615241 39.49041834 67.32531789 38.48765573 68.31445312 37.48486328 C69.33476537 36.45827796 70.35559625 35.43220787 71.37692261 34.40663147 C74.06008546 31.71018515 76.73761883 29.00822355 79.41357422 26.30462646 C83.70253967 21.97248458 87.99829085 17.64709677 92.29726791 13.32489204 C93.79865468 11.81326943 95.2965904 10.29828768 96.79421997 8.78294373 C97.70211273 7.86852005 98.61000549 6.95409637 99.54541016 6.01196289 C100.34608917 5.20303085 101.14676819 4.39409882 101.97171021 3.56065369 C104.63147105 1.04582275 105.58680787 0.73944849 109.30664062 0.39501953 C112.93164062 0.70751953 112.93164062 0.70751953 115.30664062 2.33251953 C117.34687162 5.3143956 117.93164062 7.08203028 117.93164062 10.70751953 C115.47855648 14.85726395 112.66341589 18.22152325 109.25488281 21.61132812 C108.33423035 22.53182953 107.41357788 23.45233093 106.46502686 24.40072632 C105.46963089 25.38591213 104.4741246 26.37098648 103.47851562 27.35595703 C102.45246353 28.37827388 101.42685587 29.40103698 100.40167236 30.42422485 C97.71656921 33.10173184 95.02551245 35.77317501 92.33312988 38.44335938 C89.58106382 41.17488004 86.83472802 43.91214897 84.08789062 46.64892578 C78.70803554 52.00740191 73.32187172 57.35947885 67.93164062 62.70751953 C69.46363185 66.35601797 71.6402163 68.6302605 74.45727539 71.38085938 C75.39487198 72.30216644 76.33246857 73.22347351 77.29847717 74.17269897 C77.79950518 74.66062298 78.30053318 75.14854698 78.81674385 75.65125656 C80.38984281 77.18483096 81.95521793 78.72590298 83.51853943 80.2694397 C87.9629068 84.65585782 92.41677697 89.03243332 96.88549805 93.39404297 C99.62175158 96.06577363 102.34560747 98.74962836 105.06208611 101.44145584 C106.09766172 102.4627947 107.13788696 103.47944176 108.18283272 104.49119186 C109.64506841 105.90760381 111.0906215 107.34117655 112.53540039 108.77539062 C113.36209732 109.58495209 114.18879425 110.39451355 115.0405426 111.22860718 C117.26323532 114.14218456 117.73999455 116.0734669 117.93164062 119.70751953 C116.6952066 122.57084044 115.60011524 124.20040086 113.11914062 126.08251953 C110.02571445 126.96635558 108.04281188 126.51512633 104.93164062 125.70751953 C102.34988403 123.72703552 102.34988403 123.72703552 99.75244141 121.09594727 C99.27364029 120.61787628 98.79483917 120.1398053 98.30152893 119.64724731 C96.73118318 118.07343456 95.17926641 116.4826978 93.62695312 114.89111328 C92.53803309 113.79286198 91.44799949 112.69571376 90.35690308 111.59962463 C87.49509475 108.71877136 84.6486226 105.82321922 81.80511475 102.92431641 C78.89809323 99.96604883 75.97677672 97.02197275 73.05664062 94.07666016 C67.33424309 88.30071911 61.62797369 82.50916688 55.93164062 76.70751953 C52.3321527 78.22712608 50.08199345 80.34210432 47.3659668 83.12548828 C46.46790817 84.03983643 45.56984955 84.95418457 44.64457703 85.89624023 C44.16907598 86.38484528 43.69357494 86.87345032 43.20366478 87.37686157 C41.70763447 88.91244321 40.20408787 90.44027618 38.69807434 91.96606445 C34.41824925 96.3038057 30.14821551 100.65099043 25.89331055 105.01318359 C23.28647172 107.68466059 20.66741684 110.34363991 18.04039955 112.99526978 C17.04499215 114.00488669 16.05427182 115.01914809 15.06850243 116.03817749 C13.68590845 117.46675898 12.28599152 118.87851244 10.88549805 120.28955078 C10.09592209 121.09626221 9.30634613 121.90297363 8.49284363 122.73413086 C5.38626508 125.1277275 2.76646967 125.97186093 -1.06835938 126.70751953 C-4.04364141 125.38517196 -5.77748086 123.99839804 -8.06835938 121.70751953 C-8.63085938 118.58251953 -8.63085938 118.58251953 -8.06835938 114.70751953 C-3.38282231 107.97191122 3.22561046 102.28281879 9.02148438 96.52001953 C9.97577055 95.56760341 10.9298325 94.61496258 11.88368225 93.66210938 C14.36872032 91.18085028 16.85674859 88.70261162 19.34545898 86.22503662 C21.89491558 83.68589468 24.4414675 81.14384307 26.98828125 78.60205078 C31.96659693 73.63439071 36.94808434 68.66992267 41.93164062 63.70751953 C36.94543531 57.68096416 31.52837088 52.19090738 25.97460938 46.68798828 C25.02121577 45.7390089 24.0681214 44.7897288 23.11531067 43.84016418 C20.11941532 40.85559952 17.11956119 37.87503397 14.11914062 34.89501953 C10.62250788 31.42201644 7.12753197 27.94737811 3.63671303 24.46853065 C2.24220304 23.08050019 0.8446534 21.69552574 -0.55293274 20.31059265 C-1.39438339 19.47244522 -2.23583405 18.63429779 -3.1027832 17.77075195 C-3.84635574 17.03241623 -4.58992828 16.29408051 -5.35603333 15.53337097 C-7.53694757 13.20786444 -8.01889098 12.07853249 -8.44335938 8.89501953 C-8.06835938 5.70751953 -8.06835938 5.70751953 -6.00585938 2.83251953 C-3.06835938 0.70751953 -3.06835938 0.70751953 0 0 Z " fill="#000000" transform="translate(140.068359375,91.29248046875)"/>
<path d="M0 0 C1.35216362 -0.00430527 1.35216362 -0.00430527 2.73164368 -0.00869751 C4.63710153 -0.01073533 6.54258043 -0.00522518 8.44799805 0.00732422 C11.33626291 0.02328816 14.22310841 0.00751468 17.11132812 -0.01171875 C18.97005513 -0.00973444 20.82878126 -0.00588689 22.6875 0 C23.5389006 -0.00607269 24.39030121 -0.01214539 25.26750183 -0.0184021 C35.45422812 0.09850711 43.54226526 2.89096005 51.23828125 9.6484375 C58.59835517 17.95211064 61.15223494 25.75792609 61 36.84765625 C60.353014 43.93332217 57.33973971 49.42482041 53.67578125 55.3984375 C54.31644531 55.88570312 54.95710938 56.37296875 55.6171875 56.875 C63.8994146 63.66371073 70.2037074 72.49482074 71.67578125 83.3984375 C72.58449914 95.33094615 71.13765545 106.169171 63.296875 115.59375 C62.49443359 116.48707031 62.49443359 116.48707031 61.67578125 117.3984375 C60.88880859 118.32269531 60.88880859 118.32269531 60.0859375 119.265625 C52.99811972 127.03720873 43.5523713 130.78458817 33.16983032 131.59373474 C30.48770727 131.67664542 27.81230405 131.70187079 25.12890625 131.69921875 C24.15467712 131.70350388 23.180448 131.707789 22.17669678 131.71220398 C20.13294244 131.71791056 18.0891678 131.71847488 16.04541016 131.71411133 C12.92054972 131.71093218 9.79662005 131.73452259 6.671875 131.75976562 C4.6783866 131.76203709 2.68489568 131.76274282 0.69140625 131.76171875 C-0.70401398 131.77553337 -0.70401398 131.77553337 -2.12762451 131.78962708 C-6.98859429 131.754885 -10.41293463 131.63466514 -14.32421875 128.3984375 C-15.89122317 125.26442865 -16.17586436 121.76688655 -15.32421875 118.3984375 C-12.38650531 115.18921152 -10.09774241 114.13340436 -5.86035156 113.90014648 C-4.08280476 113.87919645 -2.30494189 113.87851943 -0.52734375 113.89453125 C0.89496552 113.8803994 0.89496552 113.8803994 2.3460083 113.86598206 C5.3728193 113.83735712 8.39884598 113.83425159 11.42578125 113.8359375 C14.43832021 113.83231666 17.45028652 113.8226116 20.46270752 113.79518127 C22.33368808 113.77854642 24.20485596 113.77539467 26.0758667 113.78819275 C33.72747088 113.72723996 41.50471303 112.4482719 47.32421875 107.03515625 C51.70256232 101.73305812 54.55710241 95.63880479 54.08984375 88.69140625 C52.81296281 81.62037687 50.37234191 76.212839 44.75 71.65234375 C39.06253706 68.21415994 34.35818359 66.96324678 27.73046875 66.9921875 C26.63111496 66.97593323 26.63111496 66.97593323 25.509552 66.95935059 C22.40470297 66.91385223 19.29994668 66.90200865 16.19482422 66.88720703 C13.91474095 66.87147574 11.63534438 66.83848438 9.35546875 66.8046875 C8.65952606 66.80770874 7.96358337 66.81072998 7.24655151 66.81384277 C2.90121137 66.74704359 0.096248 66.12596146 -3.32421875 63.3984375 C-4.82421875 60.0234375 -4.82421875 60.0234375 -5.32421875 56.3984375 C-3.800231 52.78899283 -2.60796977 51.58760485 0.67578125 49.3984375 C3.73510742 49.15893555 3.73510742 49.15893555 7.46875 49.16015625 C8.83529626 49.14472481 10.20183288 49.12842033 11.56835938 49.11132812 C13.70993408 49.09495037 15.85080014 49.085896 17.99243164 49.09301758 C29.7985235 49.23665827 29.7985235 49.23665827 39.67578125 43.3984375 C42.40438867 39.56133331 43.23690938 36.15500041 43.01953125 31.41796875 C42.41863464 27.88770117 41.14635062 24.99903684 38.67578125 22.3984375 C32.97341035 18.44766877 28.79354816 17.8301238 21.9453125 17.89453125 C21.03246994 17.88511002 20.11962738 17.87568878 19.17912292 17.86598206 C16.28194376 17.83745514 13.38558918 17.83425036 10.48828125 17.8359375 C7.58038311 17.83232879 4.6730784 17.82281535 1.76530457 17.79518127 C-0.03872656 17.77840029 -1.84295383 17.77551151 -3.64701843 17.78819275 C-9.69820194 17.7372711 -9.69820194 17.7372711 -12.9074707 16.00024414 C-14.32421875 14.3984375 -14.32421875 14.3984375 -14.32421875 12.3984375 C-14.98421875 12.0684375 -15.64421875 11.7384375 -16.32421875 11.3984375 C-14.97714143 3.92828143 -14.97714143 3.92828143 -12.34912109 1.7956543 C-8.17456744 -0.13259191 -4.54587538 -0.03204296 0 0 Z " fill="#000000" transform="translate(287.32421875,1.6015625)"/>
<path d="" fill="#FFFFFF" transform="translate(0,0)"/>
<path d="" fill="#FFFFFF" transform="translate(0,0)"/>
<path d="" fill="#FFFFFF" transform="translate(0,0)"/>
<path d="" fill="#FFFFFF" transform="translate(0,0)"/>
<path d="" fill="#FFFFFF" transform="translate(0,0)"/>
<path d="" fill="#FFFFFF" transform="translate(0,0)"/>
<path d="" fill="#FFFFFF" transform="translate(0,0)"/>
<path d="" fill="#FFFFFF" transform="translate(0,0)"/>
<path d="" fill="#FFFFFF" transform="translate(0,0)"/>
<path d="" fill="#FFFFFF" transform="translate(0,0)"/>
<path d="" fill="#FFFFFF" transform="translate(0,0)"/>
<path d="" fill="#FFFFFF" transform="translate(0,0)"/>
<path d="" fill="#FFFFFF" transform="translate(0,0)"/>
<path d="" fill="#FFFFFF" transform="translate(0,0)"/>
<path d="" fill="#FFFFFF" transform="translate(0,0)"/>
<path d="" fill="#FFFFFF" transform="translate(0,0)"/>
<path d="" fill="#FFFFFF" transform="translate(0,0)"/>
<path d="" fill="#FFFFFF" transform="translate(0,0)"/>
<path d="" fill="#FFFFFF" transform="translate(0,0)"/>
<path d="" fill="#FFFFFF" transform="translate(0,0)"/>
<path d="" fill="#FFFFFF" transform="translate(0,0)"/>
<path d="" fill="#FFFFFF" transform="translate(0,0)"/>
<path d="" fill="#FFFFFF" transform="translate(0,0)"/>
<path d="" fill="#FFFFFF" transform="translate(0,0)"/>
<path d="" fill="#FFFFFF" transform="translate(0,0)"/>
<path d="" fill="#FFFFFF" transform="translate(0,0)"/>
<path d="" fill="#FFFFFF" transform="translate(0,0)"/>
<path d="" fill="#FFFFFF" transform="translate(0,0)"/>
<path d="" fill="#FFFFFF" transform="translate(0,0)"/>
<path d="" fill="#FFFFFF" transform="translate(0,0)"/>
<path d="" fill="#FFFFFF" transform="translate(0,0)"/>
<path d="" fill="#FFFFFF" transform="translate(0,0)"/>
<path d="" fill="#FFFFFF" transform="translate(0,0)"/>
<path d="" fill="#FFFFFF" transform="translate(0,0)"/>
<path d="" fill="#FFFFFF" transform="translate(0,0)"/>
<path d="" fill="#FFFFFF" transform="translate(0,0)"/>
<path d="" fill="#FFFFFF" transform="translate(0,0)"/>
<path d="" fill="#FFFFFF" transform="translate(0,0)"/>
<path d="" fill="#FFFFFF" transform="translate(0,0)"/>
<path d="" fill="#FFFFFF" transform="translate(0,0)"/>
<path d="" fill="#FFFFFF" transform="translate(0,0)"/>
<path d="" fill="#FFFFFF" transform="translate(0,0)"/>
<path d="" fill="#FFFFFF" transform="translate(0,0)"/>
<path d="" fill="#FFFFFF" transform="translate(0,0)"/>
<path d="" fill="#FFFFFF" transform="translate(0,0)"/>
<path d="" fill="#FFFFFF" transform="translate(0,0)"/>
<path d="" fill="#FFFFFF" transform="translate(0,0)"/>
<path d="" fill="#FFFFFF" transform="translate(0,0)"/>
<path d="" fill="#FFFFFF" transform="translate(0,0)"/>
<path d="" fill="#FFFFFF" transform="translate(0,0)"/>
<path d="" fill="#FFFFFF" transform="translate(0,0)"/>
<path d="" fill="#FFFFFF" transform="translate(0,0)"/>
<path d="" fill="#FFFFFF" transform="translate(0,0)"/>
<path d="" fill="#FFFFFF" transform="translate(0,0)"/>
<path d="" fill="#FFFFFF" transform="translate(0,0)"/>
<path d="" fill="#FFFFFF" transform="translate(0,0)"/>
<path d="" fill="#FFFFFF" transform="translate(0,0)"/>
<path d="" fill="#FFFFFF" transform="translate(0,0)"/>
<path d="" fill="#FFFFFF" transform="translate(0,0)"/>
<path d="" fill="#FFFFFF" transform="translate(0,0)"/>
<path d="" fill="#FFFFFF" transform="translate(0,0)"/>
<path d="" fill="#FFFFFF" transform="translate(0,0)"/>
<path d="" fill="#FFFFFF" transform="translate(0,0)"/>
<path d="" fill="#FFFFFF" transform="translate(0,0)"/>
<path d="" fill="#FFFFFF" transform="translate(0,0)"/>
<path d="" fill="#FFFFFF" transform="translate(0,0)"/>
<path d="" fill="#FFFFFF" transform="translate(0,0)"/>
<path d="" fill="#FFFFFF" transform="translate(0,0)"/>
<path d="" fill="#FFFFFF" transform="translate(0,0)"/>
</svg>
