<?xml version="1.0" encoding="UTF-8"?>
<svg version="1.1" xmlns="http://www.w3.org/2000/svg" width="315" height="286">
<path d="M0 0 C1.95245361 1.36538029 1.95245361 1.36538029 3.82519531 3.0940094 C4.5159314 3.7277907 5.20666748 4.361572 5.91833496 5.01455879 C9.19037536 8.13535091 12.42080887 11.28975053 15.609375 14.49584961 C16.32255386 15.20888245 17.03573273 15.92191528 17.77052307 16.65655518 C20.09939702 18.98611918 22.42472062 21.31919226 24.75 23.65234375 C26.37502495 25.2792361 28.00027255 26.90590608 29.62573242 28.53236389 C33.88249083 32.79292207 38.13623629 37.05647589 42.38934326 41.32067871 C46.73820132 45.67980574 51.08992708 50.03606788 55.44140625 54.39257812 C63.96373307 62.92559742 72.48287692 71.46178688 81 80 C83.9092147 78.60071251 85.99499275 77.25397551 88.28051758 74.96240234 C88.89828568 74.34771088 89.51605377 73.73301941 90.15254211 73.09970093 C90.80989853 72.435159 91.46725494 71.77061707 92.14453125 71.0859375 C92.83254318 70.39746735 93.52055511 69.70899719 94.22941589 68.99966431 C95.68502068 67.54104017 97.13819597 66.07998809 98.58911133 64.61669922 C100.78878304 62.39891228 102.99620887 60.18909123 105.20507812 57.98046875 C106.62286572 56.55775978 108.04019781 55.13459669 109.45703125 53.7109375 C110.10831497 53.05854095 110.75959869 52.40614441 111.43061829 51.73397827 C114.54877037 48.58410972 117.56734336 45.3906825 120.46557617 42.03662109 C124.17138096 37.75131216 128.10078859 33.72007191 132.09375 29.703125 C132.84410522 28.9470697 133.59446045 28.1910144 134.36755371 27.41204834 C135.94270471 25.82751803 137.51926199 24.24438453 139.09716797 22.66259766 C141.50041052 20.24958781 143.89277036 17.82611162 146.28515625 15.40234375 C147.82486081 13.85611332 149.36520377 12.31051826 150.90625 10.765625 C151.96749084 9.68586395 151.96749084 9.68586395 153.0501709 8.58428955 C162.19481205 -0.5198501 162.19481205 -0.5198501 168.4765625 -1.3125 C174.21390188 -0.47797791 177.71279041 0.95038722 181.3125 5.75 C182.61785419 10.02206825 182.91823015 14.12842922 180.9460907 18.14811707 C178.22855498 22.13050789 174.9180876 25.34317438 171.49926758 28.7277832 C170.73805099 29.48929184 169.97683441 30.25080048 169.19255066 31.03538513 C166.68125684 33.54528826 164.16295835 36.04803739 161.64453125 38.55078125 C159.8996038 40.29197765 158.15511808 42.03361683 156.41105652 43.77568054 C151.82383278 48.35527509 147.23063415 52.92883118 142.63616943 57.50115967 C137.94718533 62.16967007 133.26387127 66.84386081 128.58007812 71.51757812 C119.39226258 80.68395634 110.19831672 89.84416022 101 99 C105.23502797 104.0599809 109.66247945 108.79227683 114.35058594 113.43237305 C115.06026016 114.13898071 115.76993439 114.84558838 116.50111389 115.5736084 C118.03050336 117.09588534 119.56101788 118.61703267 121.09255219 120.13715172 C123.51589475 122.5430111 125.93559625 124.95247805 128.35430908 127.36299133 C135.22755661 134.21185743 142.10648367 141.05499839 148.98974609 147.89379883 C153.20892386 152.08622454 157.42324275 156.28348356 161.63459015 160.48377419 C163.23870035 162.08167332 164.84470593 163.67767204 166.45262909 165.27173424 C168.69530702 167.49523614 170.93179417 169.72479317 173.16699219 171.95581055 C173.83297928 172.61303604 174.49896637 173.27026154 175.18513489 173.94740295 C175.7934465 174.55701874 176.40175812 175.16663452 177.02850342 175.79472351 C177.55719402 176.32027171 178.08588463 176.84581991 178.63059616 177.38729382 C181.74483558 181.05484098 182.39857235 184.20850029 182.24609375 189.04296875 C181.69638123 193.41449212 179.55388752 195.52339911 176.3125 198.3125 C172.38412258 200.31374888 169.27193416 201.06373114 165 200 C159.00452501 196.46580278 154.06834528 191.34737121 149.20703125 186.43408203 C148.47434525 185.70168808 147.74165924 184.96929413 146.98677063 184.21470642 C144.59056971 181.81712343 142.2015117 179.41255722 139.8125 177.0078125 C138.14285362 175.334432 136.47276217 173.66149546 134.80224609 171.98898315 C130.42489387 167.60402594 126.0535835 163.21309408 121.68353271 158.82086182 C117.21585442 154.33265743 112.74244865 149.85016957 108.26953125 145.3671875 C99.50742739 136.58368905 90.75170005 127.79386378 82 119 C76.9400191 123.23502797 72.20772317 127.66247945 67.56762695 132.35058594 C66.86101929 133.06026016 66.15441162 133.76993439 65.4263916 134.50111389 C63.90411466 136.03050336 62.38296733 137.56101788 60.86284828 139.09255219 C58.4569889 141.51589475 56.04752195 143.93559625 53.63700867 146.35430908 C46.78814257 153.22755661 39.94500161 160.10648367 33.10620117 166.98974609 C28.91377546 171.20892386 24.71651644 175.42324275 20.51622581 179.63459015 C18.91832668 181.23870035 17.32232796 182.84470593 15.72826576 184.45262909 C13.50476386 186.69530702 11.27520683 188.93179417 9.04418945 191.16699219 C8.38696396 191.83297928 7.72973846 192.49896637 7.05259705 193.18513489 C6.44298126 193.7934465 5.83336548 194.40175812 5.20527649 195.02850342 C4.67972829 195.55719402 4.15418009 196.08588463 3.61270618 196.63059616 C0.00056652 199.69778718 -3.20293583 200.45959049 -7.97265625 200.30859375 C-11.4735718 199.77569909 -13.40917311 198.34981974 -16 196 C-18.15497368 192.31569015 -18.98493831 189.82839316 -19.0625 185.5625 C-16.72522683 177.72576055 -10.21646574 171.92837753 -4.52587891 166.29882812 C-3.44191833 165.21442947 -3.44191833 165.21442947 -2.33605957 164.10812378 C0.02905812 161.7443879 2.40115738 159.38779558 4.7734375 157.03125 C6.4243978 155.38402392 8.07491407 153.73635269 9.7250061 152.08825684 C14.05077942 147.77008779 18.38252695 143.4579611 22.71557617 139.14709473 C27.14345821 134.73974037 31.56562238 130.32665704 35.98828125 125.9140625 C44.65328967 117.27044738 53.32462477 108.63320931 62 100 C57.80383883 94.98371467 53.42082845 90.30410647 48.75708008 85.72290039 C48.05876572 85.03247147 47.36045135 84.34204254 46.64097595 83.63069153 C45.13606182 82.14287564 43.63010717 80.65611162 42.123209 79.17030525 C38.9150786 76.00446793 35.71644 72.82911245 32.51718426 69.65431118 C26.57225267 63.75500351 20.62359365 57.85958621 14.65844727 51.98071289 C10.49746617 47.87918636 6.34885565 43.76549827 2.20810509 39.64355278 C0.63259351 38.07976256 -0.94743724 36.52051138 -2.53209496 34.96599007 C-4.74822288 32.79097258 -6.94821796 30.60076236 -9.14526367 28.40649414 C-9.79830475 27.77300049 -10.45134583 27.13950684 -11.12417603 26.48681641 C-15.30129563 22.27198662 -17.4242348 18.75398479 -19 13 C-18.69330205 8.3530851 -17.55643382 5.67057409 -14.5625 2.0625 C-9.87274493 -1.71218091 -5.59207006 -1.52896999 0 0 Z " fill="#000000" transform="translate(22,83)"/>
<path d="M0 0 C9.05722972 8.15573251 13.84012021 19.3537168 14.546875 31.4375 C14.36142318 46.33546322 8.50827741 56.99308448 -1.42578125 67.63671875 C-11.70826895 77.57985042 -24.5003722 84.10733704 -37.09985352 90.62011719 C-42.91742534 93.67011555 -47.60724793 96.87928561 -52.48828125 101.26171875 C-53.14828125 101.26171875 -53.80828125 101.26171875 -54.48828125 101.26171875 C-54.48828125 101.92171875 -54.48828125 102.58171875 -54.48828125 103.26171875 C-53.33982475 103.251726 -53.33982475 103.251726 -52.16816711 103.24153137 C-44.94411709 103.18135914 -37.72018901 103.13571347 -30.49595356 103.10628223 C-26.78210551 103.09064252 -23.06846497 103.06943566 -19.35473633 103.03540039 C-15.76912084 103.0027458 -12.18370463 102.98485299 -8.59795189 102.97708702 C-7.23162894 102.9715544 -5.8653166 102.96075039 -4.49907875 102.94452858 C-2.58193268 102.922676 -0.66458503 102.92149268 1.25268555 102.92114258 C2.34300583 102.91448074 3.43332611 102.90781891 4.5566864 102.9009552 C7.94517401 103.3146369 9.79902642 104.21558842 12.51171875 106.26171875 C14.1582311 109.55474345 14.72528245 111.34339485 13.88671875 114.94921875 C12.30126791 117.6156588 11.18464203 118.68713957 8.51171875 120.26171875 C5.37564087 120.6493988 5.37564087 120.6493988 1.63525391 120.66577148 C0.95180405 120.67263474 0.26835419 120.67949799 -0.43580627 120.68656921 C-2.69048972 120.7048392 -4.9444773 120.70099908 -7.19921875 120.6953125 C-8.77096787 120.69987492 -10.342715 120.70518067 -11.91445923 120.7111969 C-15.20802922 120.72012887 -18.50135677 120.71770483 -21.79492188 120.70776367 C-26.00726136 120.69628591 -30.21876106 120.71646592 -34.43099022 120.74568081 C-37.67733036 120.76406621 -40.92347024 120.76374554 -44.1698494 120.75804329 C-45.72232871 120.75789029 -47.27482178 120.76391667 -48.82725143 120.77633476 C-51.00303839 120.79128463 -53.17728711 120.78054021 -55.35302734 120.76342773 C-56.58894623 120.76326157 -57.82486511 120.7630954 -59.09823608 120.76292419 C-64.28380903 119.99625671 -67.34812918 117.5251305 -70.80078125 113.69921875 C-73.75208602 109.43622297 -73.99977622 105.30911253 -73.48828125 100.26171875 C-67.84384749 84.324494 -49.34982908 76.73657278 -35.56152344 69.20996094 C-17.02303152 59.18636447 -17.02303152 59.18636447 -4.96484375 42.46484375 C-3.1586441 34.11487162 -3.52342177 25.81942021 -7.8828125 18.3828125 C-12.21284671 12.66211037 -17.87052928 9.39061464 -24.77734375 7.60546875 C-32.20156123 6.66406941 -39.62705417 8.3860579 -45.73828125 12.71484375 C-51.61080166 17.90573233 -55.14451535 23.79584102 -55.64453125 31.74609375 C-55.69609375 32.6175 -55.74765625 33.48890625 -55.80078125 34.38671875 C-56.13062788 38.05416606 -56.45829541 39.21762192 -58.61328125 42.38671875 C-62.29708186 44.78919741 -64.16771404 45.03324861 -68.48828125 44.26171875 C-71.42578125 42.57421875 -71.42578125 42.57421875 -73.48828125 39.26171875 C-75.39002408 25.93140711 -70.79738249 14.84614909 -63.30078125 4.13671875 C-46.62598973 -14.56398202 -19.05962367 -14.70935293 0 0 Z " fill="#000000" transform="translate(298.48828125,13.73828125)"/>
<path d="" fill="#FFFFFF" transform="translate(0,0)"/>
<path d="" fill="#FFFFFF" transform="translate(0,0)"/>
<path d="" fill="#FFFFFF" transform="translate(0,0)"/>
<path d="" fill="#FFFFFF" transform="translate(0,0)"/>
<path d="" fill="#FFFFFF" transform="translate(0,0)"/>
<path d="" fill="#FFFFFF" transform="translate(0,0)"/>
<path d="" fill="#FFFFFF" transform="translate(0,0)"/>
<path d="" fill="#FFFFFF" transform="translate(0,0)"/>
<path d="" fill="#FFFFFF" transform="translate(0,0)"/>
<path d="" fill="#FFFFFF" transform="translate(0,0)"/>
<path d="" fill="#FFFFFF" transform="translate(0,0)"/>
<path d="" fill="#FFFFFF" transform="translate(0,0)"/>
<path d="" fill="#FFFFFF" transform="translate(0,0)"/>
<path d="" fill="#FFFFFF" transform="translate(0,0)"/>
<path d="" fill="#FFFFFF" transform="translate(0,0)"/>
<path d="" fill="#FFFFFF" transform="translate(0,0)"/>
<path d="" fill="#FFFFFF" transform="translate(0,0)"/>
<path d="" fill="#FFFFFF" transform="translate(0,0)"/>
<path d="" fill="#FFFFFF" transform="translate(0,0)"/>
<path d="" fill="#FFFFFF" transform="translate(0,0)"/>
<path d="" fill="#FEFFFF" transform="translate(0,0)"/>
<path d="" fill="#FFFFFF" transform="translate(0,0)"/>
<path d="" fill="#FFFFFF" transform="translate(0,0)"/>
<path d="" fill="#FFFFFF" transform="translate(0,0)"/>
<path d="" fill="#FFFFFF" transform="translate(0,0)"/>
<path d="" fill="#FFFFFF" transform="translate(0,0)"/>
<path d="" fill="#FFFFFF" transform="translate(0,0)"/>
<path d="" fill="#FFFFFF" transform="translate(0,0)"/>
<path d="" fill="#FFFFFF" transform="translate(0,0)"/>
<path d="" fill="#FFFFFF" transform="translate(0,0)"/>
<path d="" fill="#FFFFFF" transform="translate(0,0)"/>
<path d="" fill="#FFFFFF" transform="translate(0,0)"/>
<path d="" fill="#FFFFFF" transform="translate(0,0)"/>
<path d="" fill="#FFFFFF" transform="translate(0,0)"/>
<path d="" fill="#FFFFFF" transform="translate(0,0)"/>
<path d="" fill="#FFFFFF" transform="translate(0,0)"/>
<path d="" fill="#FFFFFF" transform="translate(0,0)"/>
<path d="" fill="#FFFFFF" transform="translate(0,0)"/>
<path d="" fill="#FFFFFF" transform="translate(0,0)"/>
<path d="" fill="#FFFFFF" transform="translate(0,0)"/>
<path d="" fill="#FFFFFF" transform="translate(0,0)"/>
<path d="" fill="#FFFFFF" transform="translate(0,0)"/>
<path d="" fill="#FFFFFF" transform="translate(0,0)"/>
<path d="" fill="#FFFFFF" transform="translate(0,0)"/>
<path d="" fill="#FFFFFF" transform="translate(0,0)"/>
<path d="" fill="#FFFFFF" transform="translate(0,0)"/>
<path d="" fill="#FFFFFF" transform="translate(0,0)"/>
<path d="" fill="#FFFFFF" transform="translate(0,0)"/>
<path d="" fill="#FFFFFF" transform="translate(0,0)"/>
<path d="" fill="#FFFFFF" transform="translate(0,0)"/>
<path d="" fill="#FFFFFF" transform="translate(0,0)"/>
<path d="" fill="#FFFFFF" transform="translate(0,0)"/>
<path d="" fill="#FFFFFF" transform="translate(0,0)"/>
<path d="" fill="#FFFFFF" transform="translate(0,0)"/>
<path d="" fill="#FFFFFF" transform="translate(0,0)"/>
<path d="" fill="#FFFFFF" transform="translate(0,0)"/>
<path d="" fill="#FFFFFF" transform="translate(0,0)"/>
<path d="" fill="#FFFFFF" transform="translate(0,0)"/>
<path d="" fill="#FFFFFF" transform="translate(0,0)"/>
<path d="" fill="#FFFFFF" transform="translate(0,0)"/>
<path d="" fill="#FFFFFF" transform="translate(0,0)"/>
<path d="" fill="#FFFFFF" transform="translate(0,0)"/>
<path d="" fill="#FFFFFF" transform="translate(0,0)"/>
<path d="" fill="#FFFFFF" transform="translate(0,0)"/>
<path d="" fill="#FFFFFF" transform="translate(0,0)"/>
<path d="" fill="#FFFFFF" transform="translate(0,0)"/>
<path d="" fill="#FFFFFF" transform="translate(0,0)"/>
<path d="" fill="#FFFFFF" transform="translate(0,0)"/>
<path d="" fill="#FFFFFF" transform="translate(0,0)"/>
<path d="" fill="#FFFFFF" transform="translate(0,0)"/>
<path d="" fill="#FFFFFF" transform="translate(0,0)"/>
<path d="" fill="#FFFFFF" transform="translate(0,0)"/>
<path d="" fill="#FFFFFF" transform="translate(0,0)"/>
<path d="" fill="#FFFFFF" transform="translate(0,0)"/>
</svg>
