<?xml version="1.0" encoding="UTF-8"?>
<svg version="1.1" xmlns="http://www.w3.org/2000/svg" width="86" height="103">
<path d="M0 0 C1.74728897 -0.02409439 1.74728897 -0.02409439 3.52987671 -0.04867554 C8.84723379 -0.0931098 14.16444412 -0.13461127 19.48193359 -0.15722656 C22.28923072 -0.17057256 25.09580208 -0.19844016 27.90283203 -0.23925781 C31.94657654 -0.29805114 35.98954186 -0.3158835 40.03369141 -0.33056641 C41.91669449 -0.36457047 41.91669449 -0.36457047 43.83773804 -0.39926147 C53.5234313 -0.37569126 53.5234313 -0.37569126 56.61816406 2.50683594 C58.8736276 6.06091928 58.98787214 8.05435761 58.32275391 12.19287109 C57.06665039 14.87402344 57.06665039 14.87402344 54.32275391 17.19287109 C50.17635346 17.94322092 46.06107673 17.84162037 41.85791016 17.79443359 C40.6324498 17.80243988 39.40698944 17.81044617 38.14439392 17.81869507 C34.22434565 17.84180821 30.30533067 17.83228226 26.38525391 17.81787109 C22.46894099 17.81402662 18.55308673 17.81744184 14.63682556 17.83847046 C12.19948574 17.85057915 9.76201741 17.84785903 7.32472229 17.82876587 C6.2168486 17.83242157 5.10897491 17.83607727 3.9675293 17.83984375 C2.51003014 17.8338768 2.51003014 17.8338768 1.02308655 17.82778931 C-2.25937571 18.27157433 -4.10138887 19.11270698 -6.67724609 21.19287109 C-7.44985287 23.38789433 -7.44985287 23.38789433 -7.38427734 25.86083984 C-7.4277832 27.19985352 -7.4277832 27.19985352 -7.47216797 28.56591797 C-7.47796875 29.4946875 -7.48376953 30.42345703 -7.48974609 31.38037109 C-7.51488281 32.32074219 -7.54001953 33.26111328 -7.56591797 34.22998047 C-7.62483633 36.55136389 -7.66107919 38.87086033 -7.67724609 41.19287109 C-6.43112549 41.17716064 -5.18500488 41.1614502 -3.90112305 41.14526367 C0.72999588 41.09089036 5.36108668 41.05649398 9.99243164 41.02807617 C11.99540963 41.01300644 13.99835471 40.992547 16.0012207 40.96655273 C18.88322072 40.93008982 21.76478375 40.91312649 24.64697266 40.89990234 C25.53986496 40.88441849 26.43275726 40.86893463 27.35270691 40.85298157 C32.19332785 40.85167656 35.38297368 41.05961506 39.32275391 44.19287109 C41.77264233 46.64275951 42.08862081 47.75891902 42.32275391 51.19287109 C40.77916953 55.12901125 39.87435526 56.82513686 36.32275391 59.19287109 C34.2915802 59.43338013 34.2915802 59.43338013 31.94311523 59.41992188 C31.06242874 59.41977081 30.18174225 59.41961975 29.27436829 59.41946411 C28.32740585 59.40914154 27.38044342 59.39881897 26.40478516 59.38818359 C25.43240402 59.3853537 24.46002289 59.3825238 23.45817566 59.37960815 C20.35041025 59.36840709 17.24293231 59.34330257 14.13525391 59.31787109 C12.02913827 59.3078412 9.92301813 59.29871537 7.81689453 59.29052734 C2.65207011 59.26846798 -2.51253924 59.23393855 -7.67724609 59.19287109 C-7.6036084 59.92892578 -7.5299707 60.66498047 -7.45410156 61.42333984 C-7.36016113 62.39916016 -7.2662207 63.37498047 -7.16943359 64.38037109 C-7.0751709 65.34330078 -6.9809082 66.30623047 -6.88378906 67.29833984 C-6.64319028 70.67013553 -6.7244709 73.94846799 -6.93505859 77.31787109 C-6.58302608 79.87810757 -5.67774934 80.59727849 -3.67724609 82.19287109 C-1.59411408 82.61858683 -1.59411408 82.61858683 0.72729492 82.51757812 C1.615746 82.51412384 2.50419708 82.51066956 3.41957092 82.5071106 C4.37891037 82.48848969 5.33824982 82.46986877 6.32666016 82.45068359 C7.31971664 82.44406708 8.31277313 82.43745056 9.33592224 82.43063354 C12.51934546 82.40720228 15.70207869 82.36355455 18.88525391 82.31787109 C22.04335434 82.2826336 25.20140757 82.25176333 28.35960388 82.22653198 C30.32424006 82.20976957 32.28883695 82.18681255 34.25331116 82.15652466 C51.28483931 81.97398648 51.28483931 81.97398648 55.94775391 85.31787109 C58.32275391 88.19287109 58.32275391 88.19287109 58.94775391 91.69287109 C58.23504782 95.68402517 57.20986227 97.38825154 54.32275391 100.19287109 C50.92144279 101.32664146 48.13505398 101.41933338 44.54931641 101.54443359 C43.87746811 101.56813019 43.20561981 101.59182678 42.51341248 101.61624146 C40.32501254 101.69016337 38.1365075 101.75533272 35.94775391 101.81787109 C35.20443817 101.83966431 34.46112244 101.86145752 33.69528198 101.88391113 C24.58665786 102.14105648 15.49372268 102.31733227 6.38525391 101.94287109 C5.20213623 101.90347412 5.20213623 101.90347412 3.99511719 101.86328125 C-4.49025521 101.39990995 -13.52122188 99.39600774 -19.67724609 93.19287109 C-31.17377725 79.40314888 -26.972227 54.08110861 -26.67724609 37.19287109 C-26.66322754 36.22881348 -26.64920898 35.26475586 -26.63476562 34.27148438 C-26.48038091 25.98086616 -26.22219655 18.38631785 -21.67724609 11.19287109 C-21.12037109 10.28537109 -20.56349609 9.37787109 -19.98974609 8.44287109 C-14.41877779 3.0224695 -7.72064823 0.09673821 0 0 Z " fill="#0F0F0F" transform="translate(26.67724609375,0.80712890625)"/>
<path d="" fill="#FFFFFF" transform="translate(0,0)"/>
<path d="" fill="#FFFFFF" transform="translate(0,0)"/>
<path d="" fill="#FF00FF" transform="translate(0,0)"/>
<path d="" fill="#FFFFFF" transform="translate(0,0)"/>
<path d="" fill="#FFFFFF" transform="translate(0,0)"/>
<path d="" fill="#FFFFFF" transform="translate(0,0)"/>
<path d="" fill="#FFFFFF" transform="translate(0,0)"/>
<path d="" fill="#FFFFFF" transform="translate(0,0)"/>
<path d="" fill="#FFFFFF" transform="translate(0,0)"/>
<path d="" fill="#FFFFFF" transform="translate(0,0)"/>
<path d="" fill="#FFFFFF" transform="translate(0,0)"/>
<path d="" fill="#FFFFFF" transform="translate(0,0)"/>
<path d="" fill="#FFFFFF" transform="translate(0,0)"/>
<path d="" fill="#FFFFFF" transform="translate(0,0)"/>
<path d="" fill="#FFFFFF" transform="translate(0,0)"/>
<path d="" fill="#FF00FF" transform="translate(0,0)"/>
<path d="" fill="#FFFFFF" transform="translate(0,0)"/>
<path d="" fill="#FFFFFF" transform="translate(0,0)"/>
<path d="" fill="#FFFFFF" transform="translate(0,0)"/>
<path d="" fill="#FFFFFF" transform="translate(0,0)"/>
<path d="" fill="#FFFFFF" transform="translate(0,0)"/>
<path d="" fill="#FFFFFF" transform="translate(0,0)"/>
<path d="" fill="#FFFFFF" transform="translate(0,0)"/>
<path d="" fill="#FFFFFF" transform="translate(0,0)"/>
<path d="" fill="#FFFFFF" transform="translate(0,0)"/>
<path d="" fill="#FFFFFF" transform="translate(0,0)"/>
<path d="" fill="#FFFFFF" transform="translate(0,0)"/>
<path d="" fill="#FFFFFF" transform="translate(0,0)"/>
<path d="" fill="#FFFFFF" transform="translate(0,0)"/>
<path d="" fill="#FFFFFF" transform="translate(0,0)"/>
<path d="" fill="#FFFFFF" transform="translate(0,0)"/>
<path d="" fill="#FFFFFF" transform="translate(0,0)"/>
<path d="" fill="#FFFFFF" transform="translate(0,0)"/>
<path d="" fill="#FFFFFF" transform="translate(0,0)"/>
<path d="" fill="#FFFFFF" transform="translate(0,0)"/>
<path d="" fill="#FFFFFF" transform="translate(0,0)"/>
<path d="" fill="#FFFFFF" transform="translate(0,0)"/>
</svg>
