<?xml version="1.0" encoding="UTF-8"?>
<svg version="1.1" xmlns="http://www.w3.org/2000/svg" width="270" height="205">
<path d="M0 0 C1.12535156 -0.03867187 1.12535156 -0.03867187 2.2734375 -0.078125 C8.65113317 0.81178602 12.95572025 6.30957275 17.26098633 10.65893555 C18.01274139 11.41039856 18.76449646 12.16186157 19.53903198 12.93609619 C22.01646996 15.41492472 24.48675318 17.90075666 26.95703125 20.38671875 C28.67580737 22.10922597 30.39502632 23.83129143 32.1146698 25.55293274 C36.63508098 30.08097273 41.14945325 34.61498721 45.66259766 39.15026855 C50.27078451 43.77892993 54.8846525 48.40192061 59.49804688 53.02539062 C68.54593602 62.09471643 77.58765046 71.17017233 86.625 80.25 C89.62140648 78.90519568 91.70044659 77.41990528 94.00904846 75.09300232 C94.6581015 74.44380829 95.30715454 73.79461426 95.97587585 73.12574768 C96.67678848 72.41450241 97.37770111 71.70325714 98.09985352 70.97045898 C98.84664368 70.22074829 99.59343384 69.4710376 100.362854 68.6986084 C101.98289742 67.07095646 103.60062619 65.44099817 105.2163105 63.80901909 C107.77093607 61.22889395 110.33173416 58.65504448 112.89427185 56.08277893 C118.33094497 50.62323677 123.75976224 45.15592366 129.1875 39.6875 C135.47944707 33.34842224 141.77453541 27.0125342 148.07810783 20.68501472 C150.60545379 18.14466686 153.12671969 15.5983866 155.64784241 13.05186462 C157.19144663 11.50099792 158.73533089 9.95040988 160.27954102 8.40014648 C160.98247787 7.68687698 161.68541473 6.97360748 162.40965271 6.23872375 C163.05588593 5.59234955 163.70211914 4.94597534 164.36793518 4.28001404 C164.92779901 3.71570899 165.48766283 3.15140394 166.06449223 2.56999874 C169.4149309 -0.26406265 173.24684409 -0.02561429 177.40625 0.03515625 C181.6163255 0.44282201 183.76788126 2.24510217 186.4375 5.375 C188.07015884 9.32775298 188.50211175 13.04400742 187.625 17.25 C184.52000364 22.54211529 180.53824979 26.60866133 176.19433594 30.90771484 C175.08155273 32.02093613 175.08155273 32.02093613 173.94628906 33.15664673 C171.50536414 35.59618394 169.0574428 38.02857 166.609375 40.4609375 C164.91071677 42.15586363 163.21250103 43.85123332 161.51470947 45.54702759 C157.05409161 50.0000246 152.5874993 54.44698156 148.11962891 58.8927002 C143.55789425 63.43394316 139.00184552 67.98088271 134.4453125 72.52734375 C125.5107591 81.44047452 116.57007439 90.34742861 107.625 99.25 C108.96214615 102.22364809 110.42704984 104.2975542 112.73730469 106.58935547 C113.3766394 107.22854919 114.01597412 107.86774292 114.67468262 108.52630615 C115.3750061 109.216297 116.07532959 109.90628784 116.796875 110.6171875 C117.53522583 111.3526178 118.27357666 112.0880481 119.03430176 112.84576416 C120.63739665 114.44125061 122.24279782 116.03442235 123.85021973 117.62554932 C126.39281849 120.14263972 128.92913329 122.66590935 131.46386719 125.19091797 C136.84536076 130.54954294 142.23461888 135.90031726 147.625 141.25 C153.87069207 147.44853593 160.11318239 153.650224 166.34729004 159.8604126 C168.84825103 162.3483899 171.35515268 164.83027549 173.86230469 167.31201172 C175.39287297 168.83531578 176.92316163 170.35890087 178.453125 171.8828125 C179.15344849 172.57280334 179.85377197 173.26279419 180.57531738 173.97369385 C181.2146521 174.61288757 181.85398682 175.2520813 182.51269531 175.91064453 C183.06870422 176.46221222 183.62471313 177.01377991 184.1975708 177.58206177 C187.59430436 181.5511145 188.00816522 184.99780491 187.875 190.06640625 C187.3962103 194.24833502 185.62111528 196.40037226 182.5 199.0625 C178.54724702 200.69515884 174.83099258 201.12711175 170.625 200.25 C165.33288471 197.14500364 161.26633867 193.16324979 156.96728516 188.81933594 C156.22513763 188.07748047 155.48299011 187.335625 154.71835327 186.57128906 C152.27881606 184.13036414 149.84643 181.6824428 147.4140625 179.234375 C145.71913637 177.53571677 144.02376668 175.83750103 142.32797241 174.13970947 C137.8749754 169.67909161 133.42801844 165.2124993 128.9822998 160.74462891 C124.44105684 156.18289425 119.89411729 151.62684552 115.34765625 147.0703125 C106.43452548 138.1357591 97.52757139 129.19507439 88.625 120.25 C85.67421005 121.57939602 83.60525074 123.02408824 81.33033752 125.31761169 C80.70100311 125.9470871 80.0716687 126.5765625 79.42326355 127.22511292 C78.74419449 127.91451462 78.06512543 128.60391632 77.36547852 129.31420898 C76.64140808 130.04119995 75.91733765 130.76819092 75.17132568 131.51721191 C73.6003962 133.09574976 72.0317815 134.67659381 70.46521187 136.25945854 C67.98565675 138.76453106 65.49991553 141.26331107 63.01243591 143.76051331 C56.83527752 149.9644226 50.66899112 156.17910278 44.50231934 162.39343262 C39.29184736 167.64335446 34.07731319 172.88917649 28.85728264 178.1295948 C26.40867369 180.5911687 23.96616844 183.05869166 21.52381897 185.526474 C20.02081509 187.0367439 18.51752916 188.54673317 17.01391602 190.05639648 C16.33687119 190.74377396 15.65982635 191.43115143 14.96226501 192.13935852 C6.42714952 200.67637763 6.42714952 200.67637763 0.1875 200.6875 C-4.30365919 200.53779469 -6.92076798 199.19873465 -10.375 196.25 C-13.45374176 191.63188736 -13.38209723 187.6315446 -12.375 182.25 C-10.91603088 180.0630188 -10.91603088 180.0630188 -8.85766602 177.91064453 C-8.03597931 177.04497864 -7.2142926 176.17931274 -6.3677063 175.28741455 C-5.37188778 174.27322153 -4.37417231 173.26088907 -3.375 172.25 C-2.80833996 171.6719738 -2.24167992 171.0939476 -1.65784836 170.49840546 C3.20496181 165.54462526 8.11811561 160.6420399 13.03515625 155.7421875 C14.6143502 154.1648621 16.19332093 152.5873132 17.77207947 151.009552 C21.89779648 146.88762577 26.02650927 142.76871333 30.15588379 138.65045166 C34.38115016 134.43547393 38.60353412 130.21761083 42.82617188 126 C51.0896521 117.74719633 59.3563046 109.49757822 67.625 101.25 C66.27978619 98.25338597 64.79250303 96.17078748 62.46800232 93.85922241 C61.81880829 93.20872421 61.16961426 92.55822601 60.50074768 91.88801575 C59.78950241 91.18553207 59.07825714 90.4830484 58.34545898 89.75927734 C57.22089294 88.63668266 57.22089294 88.63668266 56.0736084 87.4914093 C53.59399911 85.01829226 51.10749749 82.55222183 48.62109375 80.0859375 C46.89948205 78.37059513 45.17838379 76.65473731 43.45777893 74.93838501 C38.92663523 70.42054996 34.38995996 65.90831386 29.85168457 61.39764404 C22.58225714 54.17132605 15.31953751 46.93828161 8.06001472 39.70201492 C5.5179906 37.17024601 2.97259816 34.64189941 0.42686462 32.11386108 C-1.12382197 30.56999963 -2.67440064 29.02602976 -4.22485352 27.48193359 C-4.93812302 26.77540146 -5.65139252 26.06886932 -6.38627625 25.34092712 C-7.03265045 24.69606857 -7.67902466 24.05121002 -8.34498596 23.3868103 C-8.90929101 22.82602468 -9.47359606 22.26523907 -10.05500126 21.68745995 C-13.19290272 18.27032967 -12.75949898 14.44764467 -12.73046875 10.0234375 C-12.17577844 5.69563401 -10.60784378 4.10693171 -7.375 1.25 C-4.64682878 0.34060959 -2.82790223 0.05790926 0 0 Z " fill="#0B0B0B" transform="translate(15.375,2.75)"/>
<path d="M0 0 C3.93759968 3.24272915 5.33721543 5.74307462 6.125 10.75 C6.21539496 12.7070336 6.25549399 14.66672173 6.25871277 16.62583923 C6.26297775 17.80202316 6.26724274 18.97820709 6.27163696 20.19003296 C6.27118378 21.4717337 6.27073059 22.75343445 6.27026367 24.07397461 C6.27325748 25.44427075 6.27666053 26.81456604 6.28044128 28.18486023 C6.28926187 31.89972909 6.29161855 35.61457491 6.29225707 39.32945323 C6.29296856 41.65171659 6.29510473 43.97397412 6.29775429 46.29623604 C6.30700055 54.40151465 6.31108998 62.50677683 6.31030273 70.61206055 C6.3097018 78.16185817 6.32025856 85.71158438 6.3360464 93.26136392 C6.34912863 99.74898169 6.35448636 106.23657613 6.35384732 112.72420698 C6.35359258 116.59650247 6.35643079 120.46873444 6.36702538 124.34101677 C6.37671813 127.98292399 6.37677751 131.62470709 6.36950874 135.26661873 C6.36796746 137.2358981 6.37630102 139.20517749 6.38494873 141.17443848 C6.38075424 142.35344223 6.37655975 143.53244598 6.37223816 144.74717712 C6.37278293 145.76756042 6.37332769 146.78794371 6.37388897 147.8392477 C5.83650964 154.12388995 3.84675161 157.61846734 -0.875 161.75 C-4.34682303 163.48591152 -8.07908964 163.21571673 -11.875 162.75 C-15.94565656 160.67766575 -18.24683874 159.00660656 -19.875 154.75 C-20.13506222 151.94758034 -20.13506222 151.94758034 -20.14915466 148.65274048 C-20.15912979 147.40220383 -20.16910492 146.15166718 -20.17938232 144.86323547 C-20.18027808 143.47995008 -20.18094168 142.09666452 -20.18139648 140.71337891 C-20.18901915 139.25455807 -20.19744684 137.79574124 -20.20661926 136.33692932 C-20.22855974 132.37613808 -20.23736246 128.41542403 -20.24244571 124.45457888 C-20.24608961 121.97937766 -20.25232982 119.50419665 -20.2594471 117.02900314 C-20.28393936 108.39204775 -20.29699315 99.75515241 -20.30053711 91.11816406 C-20.30417294 83.07008256 -20.33407203 75.02238229 -20.37594169 66.97441733 C-20.41064073 60.06218491 -20.42608547 53.15007887 -20.42678314 46.23775995 C-20.42757605 42.11045107 -20.43632073 37.98353061 -20.46478081 33.8563118 C-20.49095545 29.97374952 -20.49317068 26.09189788 -20.47712517 22.20928764 C-20.47531019 20.78628807 -20.48200604 19.3632477 -20.49794388 17.94033623 C-20.62501374 5.85675917 -20.62501374 5.85675917 -17.52503967 1.91903687 C-12.49550646 -2.19759696 -5.90275758 -2.56641634 0 0 Z " fill="#0B0B0B" transform="translate(259.875,4.25)"/>
<path d="M0 0 C4.7344316 1.91391916 7.72684393 5.45368786 10 10 C10.56735892 14.65048294 10.4598631 18.09730577 8.3125 22.3125 C5.17264558 25.96152 2.75765359 28.65736879 -2.0859375 29.6015625 C-12.0612145 29.67264523 -12.0612145 29.67264523 -16.1875 26.25 C-19.60002177 22.82883893 -20.9227727 19.9576185 -21.3125 15.125 C-21.19322559 11.11439807 -20.23567818 8.39206344 -18 5 C-12.12397393 -0.30275523 -7.74365066 -0.61724752 0 0 Z " fill="#0F0F0F" transform="translate(258,174)"/>
<path d="M0 0 C0.66 0.33 1.32 0.66 2 1 C-0.64 3.64 -3.28 6.28 -6 9 C-6.33 8.34 -6.66 7.68 -7 7 C-2.25 1.125 -2.25 1.125 0 0 Z " fill="#575757" transform="translate(245,175)"/>
<path d="M0 0 C0.66 0 1.32 0 2 0 C0.69425831 2.91280837 -0.7074208 4.80294493 -3 7 C-3.66 7.99 -4.32 8.98 -5 10 C-4.49890042 5.61537866 -3.01704885 3.1999003 0 0 Z " fill="#5B5B5B" transform="translate(8,4)"/>
<path d="" fill="#FFFFFF" transform="translate(0,0)"/>
<path d="" fill="#FFFFFF" transform="translate(0,0)"/>
<path d="" fill="#FFFFFF" transform="translate(0,0)"/>
<path d="" fill="#FFFFFF" transform="translate(0,0)"/>
<path d="" fill="#FFFFFF" transform="translate(0,0)"/>
<path d="" fill="#FFFFFF" transform="translate(0,0)"/>
<path d="" fill="#FFFFFF" transform="translate(0,0)"/>
<path d="" fill="#FFFFFF" transform="translate(0,0)"/>
<path d="" fill="#FFFFFF" transform="translate(0,0)"/>
<path d="" fill="#FFFFFF" transform="translate(0,0)"/>
<path d="" fill="#FFFFFF" transform="translate(0,0)"/>
<path d="" fill="#FFFFFF" transform="translate(0,0)"/>
<path d="" fill="#FFFFFF" transform="translate(0,0)"/>
<path d="" fill="#FFFFFF" transform="translate(0,0)"/>
<path d="" fill="#FFFFFF" transform="translate(0,0)"/>
<path d="" fill="#FFFFFF" transform="translate(0,0)"/>
<path d="" fill="#FFFFFF" transform="translate(0,0)"/>
<path d="" fill="#FFFFFF" transform="translate(0,0)"/>
<path d="" fill="#FFFFFF" transform="translate(0,0)"/>
<path d="" fill="#FFFFFF" transform="translate(0,0)"/>
<path d="" fill="#FFFFFF" transform="translate(0,0)"/>
<path d="" fill="#FFFFFF" transform="translate(0,0)"/>
<path d="" fill="#FFFFFF" transform="translate(0,0)"/>
<path d="" fill="#FFFFFF" transform="translate(0,0)"/>
<path d="" fill="#FFFFFF" transform="translate(0,0)"/>
<path d="" fill="#FFFFFF" transform="translate(0,0)"/>
<path d="" fill="#FFFFFF" transform="translate(0,0)"/>
<path d="" fill="#FFFFFF" transform="translate(0,0)"/>
<path d="" fill="#FFFFFF" transform="translate(0,0)"/>
<path d="" fill="#FFFFFF" transform="translate(0,0)"/>
<path d="" fill="#FFFFFF" transform="translate(0,0)"/>
<path d="" fill="#FFFFFF" transform="translate(0,0)"/>
<path d="" fill="#FFFFFF" transform="translate(0,0)"/>
<path d="" fill="#FFFFFF" transform="translate(0,0)"/>
<path d="" fill="#FFFFFF" transform="translate(0,0)"/>
<path d="" fill="#FFFFFF" transform="translate(0,0)"/>
<path d="" fill="#FFFFFF" transform="translate(0,0)"/>
<path d="" fill="#FFFFFF" transform="translate(0,0)"/>
<path d="" fill="#FFFFFF" transform="translate(0,0)"/>
<path d="" fill="#FFFFFF" transform="translate(0,0)"/>
<path d="" fill="#FFFFFF" transform="translate(0,0)"/>
<path d="" fill="#FFFFFF" transform="translate(0,0)"/>
<path d="" fill="#FFFFFF" transform="translate(0,0)"/>
<path d="" fill="#FFFFFF" transform="translate(0,0)"/>
<path d="" fill="#FFFFFF" transform="translate(0,0)"/>
<path d="" fill="#FFFFFF" transform="translate(0,0)"/>
<path d="" fill="#FFFFFF" transform="translate(0,0)"/>
<path d="" fill="#FFFFFF" transform="translate(0,0)"/>
<path d="" fill="#FFFFFF" transform="translate(0,0)"/>
<path d="" fill="#FFFFFF" transform="translate(0,0)"/>
<path d="" fill="#FFFFFF" transform="translate(0,0)"/>
<path d="" fill="#FFFFFF" transform="translate(0,0)"/>
<path d="" fill="#FFFFFF" transform="translate(0,0)"/>
<path d="" fill="#FFFFFF" transform="translate(0,0)"/>
<path d="" fill="#FFFFFF" transform="translate(0,0)"/>
<path d="" fill="#FFFFFF" transform="translate(0,0)"/>
</svg>
