<?xml version="1.0" encoding="UTF-8"?>
<svg version="1.1" xmlns="http://www.w3.org/2000/svg" width="385" height="311">
<path d="M0 0 C16.35573099 12.46150932 25.10217749 28.06572349 28.35546875 48.1875 C28.98977325 54.46646376 28.89795969 60.77090373 28.8515625 67.07421875 C28.8517181 68.8324235 28.85321712 70.59062858 28.85597229 72.34883118 C28.85734348 76.00199884 28.84501228 79.65476778 28.82202148 83.30786133 C28.79357713 87.95051088 28.79640886 92.59250313 28.8091116 97.23520184 C28.81611982 100.85500035 28.80822235 104.47465129 28.79585457 108.09443092 C28.79139432 109.80495446 28.79095474 111.51549415 28.79491997 113.22601891 C28.811369 126.55266075 28.08082053 139.50397544 21.60546875 151.5 C21.25403809 152.17168213 20.90260742 152.84336426 20.54052734 153.53540039 C12.10211368 169.26188065 -1.03167257 180.32456284 -17.8046875 186.31640625 C-20.40917517 187.05798664 -22.98704047 187.67200012 -25.64453125 188.1875 C-26.75828125 188.414375 -27.87203125 188.64125 -29.01953125 188.875 C-49.05779317 190.60243637 -67.05388623 186.16825731 -82.64453125 173.1875 C-95.3677869 162.31696211 -103.31933918 147.84271862 -105.64453125 131.1875 C-105.75010354 128.40027125 -105.81165934 125.63705755 -105.8215332 122.84985352 C-105.8281044 122.03426468 -105.8346756 121.21867584 -105.84144592 120.37837219 C-105.86108078 117.69104906 -105.87282332 115.00378172 -105.8828125 112.31640625 C-105.88688803 111.39183058 -105.89096355 110.46725491 -105.89516258 109.51466179 C-105.91598764 104.61500145 -105.93030134 99.71536877 -105.93969727 94.81567383 C-105.95071791 89.79278746 -105.98507768 84.77034941 -106.02486897 79.74762058 C-106.05121224 75.85329961 -106.05940497 71.9590823 -106.06297874 68.0646801 C-106.06780383 66.21539236 -106.07929891 64.36610795 -106.09801674 62.51690865 C-106.29703757 41.5412868 -101.85058851 22.78345616 -86.64453125 7.1875 C-61.90157215 -14.43187986 -27.70857038 -18.99080747 0 0 Z M-70.74609375 28.54296875 C-79.56440548 40.34449657 -80.25040155 51.86017674 -80.17578125 66.03125 C-80.1784819 67.85005907 -80.18236906 69.66886672 -80.18737793 71.4876709 C-80.19324607 75.28342554 -80.18479728 79.07880142 -80.16601562 82.87451172 C-80.14322764 87.71278797 -80.15636523 92.55017634 -80.18030548 97.3884201 C-80.1948365 101.13936925 -80.1901242 104.89011175 -80.17979431 108.6410675 C-80.17714715 110.42385466 -80.18032506 112.20666126 -80.18971252 113.98942566 C-80.25189729 129.11392482 -78.11698559 140.5171566 -67.64453125 152.1875 C-58.78477738 160.35058947 -47.45197049 163.99141671 -35.484375 163.50390625 C-24.78582654 162.31190842 -14.73113612 157.30448521 -7.3125 149.4453125 C-0.7788758 140.60120293 2.49926705 131.45929861 2.51660156 120.52661133 C2.52156647 119.77141205 2.52653137 119.01621277 2.53164673 118.23812866 C2.54620739 115.74858678 2.55306108 113.25910866 2.55859375 110.76953125 C2.56435136 109.0294342 2.57010901 107.28933716 2.5758667 105.54924011 C2.58636017 101.901883 2.59221327 98.25454781 2.59570312 94.60717773 C2.6011764 89.95489497 2.6251864 85.30290655 2.65367508 80.65071583 C2.67238826 77.05512167 2.67751172 73.45959709 2.679039 69.86395836 C2.68204782 68.15010664 2.69001584 66.43625562 2.70322418 64.72245216 C2.81249696 49.45092451 0.85591846 36.96567927 -9.95703125 25.375 C-13.76726702 21.81598857 -17.93014174 19.37260753 -22.64453125 17.1875 C-23.33160156 16.86652344 -24.01867187 16.54554688 -24.7265625 16.21484375 C-41.03581685 9.70929702 -59.39605872 15.82164696 -70.74609375 28.54296875 Z " fill="#000000" transform="translate(230.64453125,119.8125)"/>
<path d="M0 0 C4.68498074 4.47202707 6.61763408 8.40935479 6.88142776 14.81785393 C6.88588976 16.72533755 6.88588976 16.72533755 6.89044189 18.6713562 C6.89341302 19.38107862 6.89638414 20.09080103 6.8994453 20.82203019 C6.90811698 23.20021307 6.90963923 25.57834553 6.91113281 27.95654297 C6.91576201 29.66166288 6.9207868 31.36678175 6.92617798 33.07189941 C6.93929273 37.7041487 6.94574493 42.33638349 6.95018864 46.96864843 C6.95312037 49.86261661 6.95722533 52.75658084 6.96169281 55.65054703 C6.97536423 64.7050318 6.98503308 73.75950754 6.9888947 82.81400192 C6.99337714 93.26659244 7.01093512 103.7190523 7.0398953 114.17160308 C7.0615051 122.25154351 7.07159858 130.33144715 7.07293582 138.41141617 C7.07398419 143.23725859 7.07989905 148.06297813 7.09775543 152.88879013 C7.11422436 157.42781758 7.11639737 161.9666296 7.10761642 166.50567627 C7.10684546 168.17054954 7.11119655 169.83543433 7.12107468 171.50027847 C7.13378074 173.7753344 7.12792525 176.04962574 7.11749268 178.32467651 C7.11969252 180.23329122 7.11969252 180.23329122 7.1219368 182.18046379 C6.63298747 186.70866228 5.16707707 190.04441404 2.125 193.4375 C-2.1150802 195.5575401 -6.67992651 196.41427401 -11.28515625 195 C-15.74486248 192.72753823 -17.40990993 190.13407098 -19.25 185.625 C-19.63476086 182.48163795 -19.63476086 182.48163795 -19.64872742 179.05703735 C-19.66126556 177.75300964 -19.67380371 176.44898193 -19.6867218 175.10543823 C-19.68554792 173.6726682 -19.68408883 172.23989839 -19.68237305 170.80712891 C-19.69139515 169.28901371 -19.70172347 167.77090581 -19.71325684 166.25280762 C-19.74080051 162.14170445 -19.75010775 158.03073961 -19.75611091 153.91955614 C-19.76550144 149.61936 -19.79170539 145.3192669 -19.81611633 141.01913452 C-19.85976634 132.88076551 -19.8883225 124.74241652 -19.91143972 116.60396612 C-19.93849942 107.336713 -19.98241046 98.06956363 -20.02772844 88.80238461 C-20.12055324 69.74331119 -20.19224389 50.68421033 -20.25 31.625 C-22.47688857 34.31766816 -24.70152043 37.01219222 -26.92578125 39.70703125 C-27.55005005 40.46181763 -28.17431885 41.216604 -28.81750488 41.9942627 C-34.6151971 49.02251651 -40.16720702 56.22412887 -45.66113281 63.49169922 C-47.12042494 65.41724825 -48.59064904 67.33404113 -50.0625 69.25 C-50.50682373 69.84256592 -50.95114746 70.43513184 -51.40893555 71.0456543 C-54.44974002 74.98320156 -57.29006811 78.05319498 -62.3125 79.0234375 C-67.75064109 78.95765354 -70.81507831 77.71207574 -75 74.125 C-77.48111552 71.14766138 -77.72813436 67.60795986 -77.6328125 63.8359375 C-76.14765673 55.25840517 -66.9368331 47.22918716 -61.546875 40.671875 C-58.70824932 37.20751324 -55.96272408 33.68877477 -53.25 30.125 C-48.9145234 24.436458 -44.43345213 18.87963475 -39.890625 13.35546875 C-36.68373667 9.44306499 -33.62842767 5.46666258 -30.69677734 1.34277344 C-22.65817586 -8.20153976 -9.10545586 -7.10943228 0 0 Z " fill="#000000" transform="translate(96.25,113.375)"/>
<path d="M0 0 C8.39177681 1.97453572 15.4868788 11.91792863 21.375 17.83984375 C22.32741612 18.79412993 23.28005695 19.74819188 24.23291016 20.70204163 C26.71416925 23.1870797 29.19240791 25.67510796 31.66998291 28.16381836 C34.20912485 30.71327496 36.75117646 33.25982688 39.29296875 35.80664062 C44.26062882 40.78495631 49.22509686 45.76644371 54.1875 50.75 C57.83542958 49.21913664 60.10041429 47.04576833 62.8449707 44.22436523 C63.76305008 43.28676865 64.68112946 42.34917206 65.62702942 41.38316345 C66.11333139 40.88213545 66.59963337 40.38110744 67.10067177 39.86489677 C68.62995472 38.29143864 70.16716537 36.72615484 71.70707703 35.1631012 C76.08345929 30.71965278 80.45152057 26.26829207 84.79858398 21.79614258 C87.46160878 19.05765689 90.1391911 16.33414595 92.82655907 13.61955452 C93.84518988 12.58485693 94.85824706 11.54464042 95.86544228 10.49880791 C97.27682291 9.03424449 98.70897396 7.58978444 100.1418457 6.14624023 C100.94918655 5.3195433 101.7565274 4.49284637 102.58833313 3.64109802 C105.83934883 1.27572878 108.20155343 0.90577886 112.1875 0.75 C115.89302932 2.68331965 116.93873352 4.10320714 118.4375 8 C118.16650937 12.06485944 117.8957834 12.51485818 115.30249023 15.34765625 C114.6618161 16.04810059 114.02114197 16.74854492 113.36105347 17.47021484 C109.33699645 21.69094628 105.23288795 25.82586636 101.09765625 29.9375 C100.14337007 30.88991612 99.18930812 31.84255695 98.23545837 32.79541016 C95.7504203 35.27666925 93.26239204 37.75490791 90.77368164 40.23248291 C88.22422504 42.77162485 85.67767312 45.31367646 83.13085938 47.85546875 C78.15254369 52.82312882 73.17105629 57.78759686 68.1875 62.75 C69.71836336 66.39792958 71.89173167 68.66291429 74.71313477 71.4074707 C75.65073135 72.32555008 76.58832794 73.24362946 77.55433655 74.18952942 C78.30587855 74.91898238 78.30587855 74.91898238 79.07260323 75.66317177 C80.64606136 77.19245472 82.21134516 78.72966537 83.7743988 80.26957703 C88.21784722 84.64595929 92.66920793 89.01402057 97.14135742 93.36108398 C99.87984311 96.02410878 102.60335405 98.7016911 105.31794548 101.38905907 C106.35264307 102.40768988 107.39285958 103.42074706 108.43869209 104.42794228 C109.90325551 105.83932291 111.34771556 107.27147396 112.79125977 108.7043457 C113.6179567 109.51168655 114.44465363 110.3190274 115.29640198 111.15083313 C117.64932841 114.38474716 117.97553062 116.7934861 118.1875 120.75 C117.08541992 124.14808026 116.26652124 124.69731917 113.1875 126.75 C110.5 127.3125 110.5 127.3125 107.1875 126.75 C104.26157671 124.6863915 101.76695455 122.22406827 99.1875 119.75 C98.00593871 118.76367524 96.81872184 117.78407181 95.625 116.8125 C93.12617995 114.68512617 90.99378276 112.44241607 88.875 109.9375 C86.30784059 106.91012893 83.6062011 104.26280542 80.62109375 101.6484375 C75.06091441 96.69378698 69.80199442 91.47744881 64.5625 86.1875 C63.65371094 85.27419922 62.74492187 84.36089844 61.80859375 83.41992188 C59.59922045 81.19892029 57.39223969 78.97559967 55.1875 76.75 C50.50258826 80.66237815 46.06787349 84.7308312 41.7734375 89.06640625 C41.19590729 89.64535141 40.61837708 90.22429657 40.02334595 90.82078552 C38.20067166 92.64899259 36.38152103 94.48065875 34.5625 96.3125 C33.33617228 97.54385366 32.10961157 98.77497533 30.8828125 100.00585938 C28.62795082 102.26883317 26.37444759 104.53314046 24.12255859 106.79907227 C21.482934 109.45479033 18.83518364 112.10231636 16.1875 114.75 C15.24506656 115.70210935 14.30344727 116.65502661 13.36328125 117.609375 C12.40886663 118.57292902 11.45443948 119.53647062 10.5 120.5 C9.77200195 121.24056641 9.77200195 121.24056641 9.02929688 121.99609375 C4.47896793 126.57780428 4.47896793 126.57780428 0.375 127.125 C-2.8125 126.75 -2.8125 126.75 -5.6875 124.625 C-7.8125 121.75 -7.8125 121.75 -8.5625 118.9375 C-6.58796428 110.54572319 3.35542863 103.4506212 9.27734375 97.5625 C10.23162993 96.61008388 11.18569188 95.65744305 12.13954163 94.70458984 C14.6245797 92.22333075 17.11260796 89.74509209 19.60131836 87.26751709 C22.15077496 84.72837515 24.69732688 82.18632354 27.24414062 79.64453125 C32.22245631 74.67687118 37.20394371 69.71240314 42.1875 64.75 C40.26548092 60.55593737 37.39622563 57.68781469 34.1484375 54.48046875 C33.54875153 53.881241 32.94906555 53.28201324 32.33120728 52.66462708 C31.06089709 51.39733463 29.7881607 50.13247017 28.51318359 48.86987305 C26.5851141 46.95990182 24.66500968 45.04220964 22.74609375 43.12304688 C17.23561849 37.62889842 11.73131387 32.18666806 5.80224609 27.13989258 C3.35597107 25.03426153 1.09129389 22.78598252 -1.1875 20.5 C-2.02023437 19.66984375 -2.85296875 18.8396875 -3.7109375 17.984375 C-6.45169584 15.07040888 -7.72938087 13.39120473 -8.25 9.375 C-7.8125 5.75 -7.8125 5.75 -5.6875 2.8125 C-2.8125 0.75 -2.8125 0.75 0 0 Z " fill="#010101" transform="translate(264.8125,2.25)"/>
<path d="M0 0 C3.03820781 0.17375371 4.59808047 0.65608105 6.921875 2.64453125 C7.52515625 3.35996094 8.1284375 4.07539063 8.75 4.8125 C9.42546875 5.61171875 10.1009375 6.4109375 10.796875 7.234375 C14.64925054 12.07033578 18.35138645 17.00849396 22 22 C26.50410476 20.43151175 28.6829758 16.91764708 31.4375 13.25 C33.28639626 10.82925371 35.13950203 8.41184268 37 6 C37.44964111 5.41331543 37.89928223 4.82663086 38.36254883 4.22216797 C41.67484226 0.04335437 41.67484226 0.04335437 44.8125 -0.375 C45.534375 -0.25125 46.25625 -0.1275 47 0 C48.375 2 48.375 2 49 5 C47.99023438 6.74414062 47.99023438 6.74414062 46.46875 8.65625 C45.91493652 9.36007812 45.36112305 10.06390625 44.79052734 10.7890625 C44.19965332 11.51867187 43.6087793 12.24828125 43 13 C42.43361816 13.70898438 41.86723633 14.41796875 41.28369141 15.1484375 C39.57532849 17.2750061 37.85275578 19.38916714 36.125 21.5 C35.53203125 22.22703125 34.9390625 22.9540625 34.328125 23.703125 C32.88681118 25.46989678 31.44409159 27.23549858 30 29 C31.4611657 33.58738069 34.1007317 36.71998752 37.25 40.25 C41.60798334 45.25144397 45.52781255 50.33022556 49 56 C47.2265625 59.8671875 47.2265625 59.8671875 45.1875 61.0625 C42.29044035 60.97972687 41.42167873 59.68231046 39.48706055 57.66430664 C35.78750078 53.52378802 32.36841443 49.13917523 28.90820312 44.79882812 C28.30556641 44.05439453 27.70292969 43.30996094 27.08203125 42.54296875 C26.53780518 41.86258545 25.9935791 41.18220215 25.43286133 40.48120117 C24.96001709 39.99240479 24.48717285 39.5036084 24 39 C23.34 39 22.68 39 22 39 C20.57310861 40.41482889 20.57310861 40.41482889 19.13671875 42.2890625 C18.57919922 42.98386719 18.02167969 43.67867188 17.44726562 44.39453125 C16.86654297 45.13058594 16.28582031 45.86664063 15.6875 46.625 C14.54588062 48.05493322 13.40395789 49.48462431 12.26171875 50.9140625 C11.71306152 51.6040332 11.1644043 52.29400391 10.59912109 53.00488281 C8.4370306 55.70237953 6.22457066 58.35388781 4 61 C-0.875 60.125 -0.875 60.125 -2 59 C-2.30213042 56.12080338 -2.29580141 54.49481904 -0.79418945 51.98291016 C-0.23948975 51.34144043 0.31520996 50.6999707 0.88671875 50.0390625 C1.49580078 49.31976563 2.10488281 48.60046875 2.73242188 47.859375 C3.37759766 47.12203125 4.02277344 46.3846875 4.6875 45.625 C5.94354802 44.16068861 7.19748541 42.69456391 8.44921875 41.2265625 C9.05169434 40.52176758 9.65416992 39.81697266 10.27490234 39.09082031 C12.68663691 36.16779528 14.84841824 33.11835368 17 30 C14.77113129 27.29142134 12.54185055 24.58318208 10.3125 21.875 C9.68666016 21.11445313 9.06082031 20.35390625 8.41601562 19.5703125 C7.80048828 18.82265625 7.18496094 18.075 6.55078125 17.3046875 C5.9477417 16.56992187 5.34470215 15.83515625 4.72338867 15.078125 C3.64302245 13.77537995 2.55108732 12.4820509 1.44262695 11.203125 C-1.95621928 7.27519312 -1.95621928 7.27519312 -2.4375 4.25 C-2 2 -2 2 0 0 Z " fill="#010101" transform="translate(4,248)"/>
<path d="" fill="#FFFFFF" transform="translate(0,0)"/>
<path d="" fill="#FFFFFF" transform="translate(0,0)"/>
<path d="" fill="#FFFFFF" transform="translate(0,0)"/>
<path d="" fill="#FFFFFF" transform="translate(0,0)"/>
<path d="" fill="#FFFFFF" transform="translate(0,0)"/>
<path d="" fill="#FFFFFF" transform="translate(0,0)"/>
<path d="" fill="#FFFFFF" transform="translate(0,0)"/>
<path d="" fill="#FFFFFF" transform="translate(0,0)"/>
<path d="" fill="#FFFFFF" transform="translate(0,0)"/>
<path d="" fill="#FFFFFF" transform="translate(0,0)"/>
<path d="" fill="#FFFFFF" transform="translate(0,0)"/>
<path d="" fill="#FFFFFF" transform="translate(0,0)"/>
<path d="" fill="#FFFFFF" transform="translate(0,0)"/>
<path d="" fill="#FFFFFF" transform="translate(0,0)"/>
<path d="" fill="#FFFFFF" transform="translate(0,0)"/>
<path d="" fill="#FFFFFF" transform="translate(0,0)"/>
<path d="" fill="#FFFFFF" transform="translate(0,0)"/>
<path d="" fill="#FFFFFF" transform="translate(0,0)"/>
<path d="" fill="#FF00FF" transform="translate(0,0)"/>
<path d="" fill="#FFFFFF" transform="translate(0,0)"/>
<path d="" fill="#FFFFFF" transform="translate(0,0)"/>
<path d="" fill="#FFFFFF" transform="translate(0,0)"/>
<path d="" fill="#FFFFFF" transform="translate(0,0)"/>
<path d="" fill="#FFFFFF" transform="translate(0,0)"/>
<path d="" fill="#FFFFFF" transform="translate(0,0)"/>
<path d="" fill="#FFFFFF" transform="translate(0,0)"/>
<path d="" fill="#FFFFFF" transform="translate(0,0)"/>
<path d="" fill="#FFFFFF" transform="translate(0,0)"/>
<path d="" fill="#FFFFFF" transform="translate(0,0)"/>
<path d="" fill="#FFFFFF" transform="translate(0,0)"/>
<path d="" fill="#FFFFFF" transform="translate(0,0)"/>
<path d="" fill="#FFFFFF" transform="translate(0,0)"/>
<path d="" fill="#FFFFFF" transform="translate(0,0)"/>
<path d="" fill="#FFFFFF" transform="translate(0,0)"/>
<path d="" fill="#FFFFFF" transform="translate(0,0)"/>
<path d="" fill="#FFFFFF" transform="translate(0,0)"/>
<path d="" fill="#FFFFFF" transform="translate(0,0)"/>
<path d="" fill="#FFFFFF" transform="translate(0,0)"/>
<path d="" fill="#FFFFFF" transform="translate(0,0)"/>
<path d="" fill="#FFFFFF" transform="translate(0,0)"/>
<path d="" fill="#FFFFFF" transform="translate(0,0)"/>
<path d="" fill="#FFFFFE" transform="translate(0,0)"/>
<path d="" fill="#FFFFFF" transform="translate(0,0)"/>
<path d="" fill="#FFFFFF" transform="translate(0,0)"/>
<path d="" fill="#FFFFFF" transform="translate(0,0)"/>
<path d="" fill="#FFFFFF" transform="translate(0,0)"/>
<path d="" fill="#FFFFFF" transform="translate(0,0)"/>
</svg>
